<svg version="1.1" xmlns="http://www.w3.org/2000/svg" viewBox="0 0 1982.4250832989137 1368.1247838065385" width="3964.8501665978274" height="2736.249567613077">
  <!-- svg-source:excalidraw -->
  
  <defs>
    <style>
      @font-face {
        font-family: "Virgil";
        src: url("https://excalidraw.com/Virgil.woff2");
      }
      @font-face {
        font-family: "Cascadia";
        src: url("https://excalidraw.com/Cascadia.woff2");
      }
    </style>
  </defs>
  <rect x="0" y="0" width="1982.4250832989137" height="1368.1247838065385" fill="#ffffff"></rect><g stroke-linecap="round" transform="translate(10 119.6251153596528) rotate(0 556.5888403754841 381.9778714378545)"><path d="M1.39 0.83 L1111.22 -1.38 L1111.86 763.02 L0.57 762.8" stroke="none" stroke-width="0" fill="#fff"></path><path d="M0.18 0.34 C267.79 0.16, 534.92 0.55, 1113.11 0.69 M1113.57 -0.34 C1111.76 178.99, 1112.56 358.43, 1113.29 764.02 M1113.57 764.03 C755.26 760.77, 396.34 761.4, -0.77 763.86 M-0.21 764.58 C-1.87 582.92, -2.47 403.26, -0.18 0.04" stroke="#000000" stroke-width="1.5" fill="none" stroke-dasharray="8 9"></path></g><g stroke-linecap="round" transform="translate(406.69034700765076 343.39035180951896) rotate(0 102.9437150473284 57.46448712593144)"><path d="M-0.85 -0.06 C47.89 -0.67, 98.34 -0.19, 205.27 0.93 M-0.67 -0.48 C60.92 -1.74, 121.95 -1.34, 205.31 0.02 M204.09 0.86 C207.01 43.36, 206.76 90.17, 205.41 113.61 M206.83 0.26 C205.86 35.88, 205.96 73.81, 206.3 114.47 M206.17 116.67 C138.16 114.55, 65.65 116.2, -1.55 115.85 M205.04 115.77 C154.33 113.18, 103.3 113.91, -0.15 114.88 M-0.41 113.92 C1.43 72.13, 0.79 28.82, -2 1.73 M0.99 114.13 C0.65 80.35, 0.6 45.05, 0.01 0.63" stroke="#000000" stroke-width="1" fill="none"></path></g><g transform="translate(420.1935392135087 346.2280143931837) rotate(0 80.5 27)"><text x="0" y="13" font-family="Virgil, Segoe UI Emoji" font-size="13.555813934887311px" fill="#000000" text-anchor="start" style="white-space: pre;" direction="ltr">get data for different </text><text x="0" y="31" font-family="Virgil, Segoe UI Emoji" font-size="13.555813934887311px" fill="#000000" text-anchor="start" style="white-space: pre;" direction="ltr">types of internal</text><text x="0" y="49" font-family="Virgil, Segoe UI Emoji" font-size="13.555813934887311px" fill="#000000" text-anchor="start" style="white-space: pre;" direction="ltr">achievements</text></g><g transform="translate(421.3488094669089 407.6537383151715) rotate(0 61.84840107792336 26.688008684309352)"><text x="0" y="12.792005789539598" font-family="Virgil, Segoe UI Emoji" font-size="13.555813934887313px" fill="#000000" text-anchor="start" style="white-space: pre;" direction="ltr">- programs + skills</text><text x="0" y="30.584011579079196" font-family="Virgil, Segoe UI Emoji" font-size="13.555813934887313px" fill="#000000" text-anchor="start" style="white-space: pre;" direction="ltr">- courses + skills</text><text x="0" y="48.37601736861879" font-family="Virgil, Segoe UI Emoji" font-size="13.555813934887313px" fill="#000000" text-anchor="start" style="white-space: pre;" direction="ltr"></text></g><g stroke-linecap="round" transform="translate(374.68619435741834 518.933941954408) rotate(0 123.14915577872523 70.85533016698173)"><path d="M-0.68 -1.59 C52.78 -1.35, 103.1 -0.41, 245.48 1.19 M-0.2 0.58 C90.3 -0.58, 179.51 -0.32, 246.89 0.33 M246.22 0.86 C248.2 33.29, 247.83 62.44, 246.96 143.38 M246.91 -0.25 C245.64 39.21, 247.08 80.6, 247.04 141.94 M247.23 142.69 C163.67 140.25, 81.64 138.97, 0.65 142.86 M246.16 141.7 C152.8 142.14, 58.2 143.15, -0.12 141.82 M0.85 140.5 C2.71 94.68, 1.54 43.75, 0.99 0.18 M0.29 140.92 C-1.2 108.98, -0.28 77.66, 0.3 -0.9" stroke="#000000" stroke-width="1" fill="none"></path></g><g transform="translate(390.654657399209 520.6824993296216) rotate(0 102.5 20.5)"><text x="0" y="14.5" font-family="Virgil, Segoe UI Emoji" font-size="16px" fill="#000000" text-anchor="start" style="white-space: pre;" direction="ltr">build credentials complaint</text><text x="0" y="35" font-family="Virgil, Segoe UI Emoji" font-size="16px" fill="#000000" text-anchor="start" style="white-space: pre;" direction="ltr">with protocol variations</text></g><g transform="translate(432.1895769526434 10) rotate(0 287 45.5)"><text x="0" y="32.5" font-family="Virgil, Segoe UI Emoji" font-size="36px" fill="#000000" text-anchor="start" style="white-space: pre;" direction="ltr">Extension for issuing credentials</text><text x="0" y="78" font-family="Virgil, Segoe UI Emoji" font-size="36px" fill="#000000" text-anchor="start" style="white-space: pre;" direction="ltr">Part of edx credentials</text></g><g transform="translate(389.19329716862944 575.7235731959822) rotate(0 70.5 31)"><text x="0" y="14.666666666666668" font-family="Virgil, Segoe UI Emoji" font-size="16px" fill="#000000" text-anchor="start" style="white-space: pre;" direction="ltr">- VC</text><text x="0" y="35.333333333333336" font-family="Virgil, Segoe UI Emoji" font-size="16px" fill="#000000" text-anchor="start" style="white-space: pre;" direction="ltr">- Open Badges3.0</text><text x="0" y="56" font-family="Virgil, Segoe UI Emoji" font-size="16px" fill="#000000" text-anchor="start" style="white-space: pre;" direction="ltr">- EBSI</text></g><g stroke-linecap="round" transform="translate(438.3906418033248 1148.2637862748788) rotate(0 130.4049551136037 104.93049876582984)"><path d="M0.81 1.3 C53.98 0.16, 105.27 -1.45, 262.35 0.69 M-0.46 -0.39 C69.62 0.43, 139.41 -0.54, 260.39 -0.53 M260.14 -0.4 C262.34 58, 261.71 116.54, 261.33 209.95 M260.14 -0.03 C261.86 79.72, 262.41 158.18, 260.5 209.43 M262.38 210.7 C201.76 211.35, 141.22 210.9, 0.77 208.68 M260.93 210.53 C158.41 210.36, 56 209.42, -0.21 209.17 M0.98 209.96 C0.4 161.72, 1.29 111.66, 0.01 -1.54 M0.24 210.2 C0.61 142.89, 0.67 76.92, 0.87 0.48" stroke="#000000" stroke-width="1" fill="none"></path></g><g transform="translate(496.4702479978123 1187.5224036162913) rotate(0 61.5 13)"><text x="0" y="18" font-family="Virgil, Segoe UI Emoji" font-size="20px" fill="#000000" text-anchor="start" style="white-space: pre;" direction="ltr"> Sign service</text></g><g transform="translate(427.1290772506301 994.3082524729925) rotate(0 52 13)"><text x="0" y="18" font-family="Virgil, Segoe UI Emoji" font-size="20px" fill="#000000" text-anchor="start" style="white-space: pre;" direction="ltr">Send data</text></g><g transform="translate(613.460416771215 1006.500712240015) rotate(0 83.5 13)"><text x="0" y="18" font-family="Virgil, Segoe UI Emoji" font-size="20px" fill="#000000" text-anchor="start" style="white-space: pre;" direction="ltr">Get Signed data</text></g><g transform="translate(507.0272857778816 1231.2241887589757) rotate(0 33.5 12.999999999999886)"><text x="0" y="18" font-family="Virgil, Segoe UI Emoji" font-size="20px" fill="#000000" text-anchor="start" style="white-space: pre;" direction="ltr">MS AD</text></g><g transform="translate(509.9938644122102 1274.3540437565505) rotate(0 37.5 13)"><text x="0" y="18" font-family="Virgil, Segoe UI Emoji" font-size="20px" fill="#000000" text-anchor="start" style="white-space: pre;" direction="ltr">MATTR</text></g><g stroke-linecap="round" transform="translate(1679.9250832989137 401.1310091451105) rotate(0 146.25 189.62621619792128)"><path d="M0 0 C0 0, 0 0, 0 0 M0 0 C0 0, 0 0, 0 0 M0.32 7.01 C1.84 3.5, 4.44 1.62, 5.63 0.54 M-0.12 6.27 C1.38 4.24, 3.63 1.81, 5.3 0.2 M-0.92 12.97 C3.22 8.05, 8.54 5.11, 10.16 -1.14 M-0.58 12.54 C3.21 8.75, 6.25 5.9, 10.07 0.75 M0.58 18.33 C2.3 12.26, 7.51 8.7, 15.71 0.7 M-1.1 18.39 C5.28 11.89, 11.6 4, 14.65 0.03 M1.67 24.43 C3.84 18.74, 9.7 12.81, 22.32 0.03 M0.49 23.8 C4.19 17.96, 10.5 12.1, 20.33 0.63 M1.15 31.91 C10.01 19.33, 18.21 9.54, 26.64 0.63 M-0.45 29.84 C9.08 20.24, 19.91 8.56, 25.39 -0.35 M-0.29 36.12 C12.63 22.48, 23.29 11.55, 33.8 0.58 M0.72 37.12 C12.61 22.37, 25.56 8.43, 31.93 0 M-1.21 42.41 C12.65 29.16, 22.62 15.94, 37.2 -1.09 M0.22 42.79 C15.92 25.61, 30.43 9.17, 36.98 1.15 M-0.21 49.34 C9.77 36.39, 20.21 25.58, 40.92 -1.59 M0.35 49.32 C12.76 34.06, 23.86 21.17, 42.13 -0.3 M1.73 56.23 C18.13 37.46, 31.31 20.04, 47.53 0.57 M0.47 53.78 C18.78 34.08, 36.31 14.45, 46.76 -0.02 M1.15 62.1 C17.87 40.4, 31.06 24.36, 52.49 0.38 M0.21 60.48 C12.91 45.19, 25.23 31.98, 53.7 0.54 M-2.17 69.25 C18.51 44.65, 36.64 21.72, 60.05 1.3 M0.51 68.21 C13.56 53.19, 25.66 36.89, 58.42 0.77 M1.96 74.37 C15.8 55.65, 29.31 40.08, 65.58 -1.96 M0.08 73.11 C14.86 55.35, 31.84 38.07, 64.73 -0.55 M1.26 79.74 C20.91 55.09, 39.64 31.2, 67.51 -0.5 M-0.12 79.42 C18.8 56.92, 36.86 36.1, 67.96 -0.69 M-1.27 84.78 C14.32 66.89, 33.1 47.75, 73.62 -0.39 M0.12 84.86 C16.87 66.96, 31.24 49.54, 74.66 -0.44 M0.51 92.96 C18.81 70.05, 40.59 46.36, 80.99 0.24 M-0.51 91.14 C22.27 65.28, 44.94 39.02, 79.77 0.53 M1.61 99.41 C21.04 69.14, 46.76 45.22, 86.32 -1.98 M0.16 97.3 C32.49 61.15, 64.77 23.08, 84.29 0.13 M1.06 102.06 C22.49 79.3, 46.31 55.25, 89.85 -0.72 M0.27 102.51 C19.88 81.45, 40.78 58.76, 90.54 0.52 M1.05 108.76 C26.01 79.86, 50.69 52.39, 93.71 -1.12 M0.36 108.9 C28.81 77.1, 56.29 44.94, 95.76 0.58 M0.69 116.91 C36.46 71.74, 73.61 32.4, 101.79 -0.91 M0.46 114.83 C25.8 85.62, 52.81 55.1, 101.34 0.54 M-0.17 120.31 C23.7 92.94, 50.18 67.57, 106.13 0.47 M-0.77 121.53 C24.7 93.24, 47.97 65.4, 106.52 0.49 M0.83 128.8 C36.72 82.8, 76.27 38.9, 110.8 0.79 M-0.99 128.31 C22.31 102.74, 45.74 73.65, 111.56 0.99 M-0.31 135.42 C41.52 86.33, 78.06 43.96, 117.59 -1.45 M0.3 133.47 C43.06 86.39, 85.97 37.03, 116.76 0.35 M1.21 139.47 C43.31 90.36, 86.55 41.77, 121.2 0.21 M0.19 141.05 C34.26 99.16, 69.47 60.52, 120.94 -0.56 M0.71 146.19 C36.04 102.27, 74.81 60.43, 128.37 -0.73 M-0.57 146.17 C50.55 88.34, 99.82 29.81, 125.94 0.54 M-0.09 153.47 C48.55 96.88, 92.79 43.25, 131.72 -0.11 M-0.35 151.66 C39.94 106.31, 80.79 61.45, 131.68 0.54 M0.5 159.97 C45.39 104.14, 92.78 53.04, 137.15 -0.19 M0.13 158.94 C47.09 105.71, 93.7 52.51, 136.98 -0.08 M-0.06 163.85 C55.03 98.39, 114.35 35.88, 143.02 0.85 M0.82 163.87 C45.88 112.36, 89.94 61.18, 143.79 0.3 M1.14 169.41 C32.46 131.2, 67.81 93.31, 147.48 0.91 M0.34 170.2 C47.36 117.67, 94.53 64.06, 148.48 0.49 M0.55 175.47 C49.84 117.52, 100.44 61.46, 154.45 -0.5 M0.96 175.9 C57.21 107.11, 115.8 41.43, 154.52 -0.24 M1.11 182.34 C41.14 135.95, 83.13 87.36, 159.03 0.73 M0.31 183.18 C57.93 115.77, 115.5 50.29, 158.96 0.78 M0.74 190.6 C42.23 141.72, 85.17 91.06, 164.01 1.42 M-0.23 188.69 C62.04 117.26, 124.99 44.75, 164.88 -0.9 M1.5 194.28 C50.43 139.58, 99.45 81.05, 168.65 1.32 M-0.53 194.54 C44.75 144.51, 88.41 94.17, 169.76 -0.39 M-1.37 200.09 C53.36 139.24, 108.44 76.82, 174.94 0.98 M-0.05 201.05 C36 160.39, 72.69 117.75, 174.49 -0.62 M-1.1 206.49 C51.21 150.02, 104.66 88.71, 180.05 -1.18 M0.68 206.94 C49.36 150.83, 98.83 95.37, 179.97 0.75 M0.17 213.84 C46.95 158.15, 92.83 106.85, 185.72 -1.62 M0.01 214.12 C69.35 135.52, 138.34 56.9, 186.33 -0.61 M0.39 219.87 C67.8 143.25, 133.91 68.82, 190.67 -0.63 M0.01 219.82 C72.2 134.35, 145.23 50.62, 191.32 0.1 M-0.47 225.57 C52.81 162.07, 106.79 100.58, 196.73 -1.28 M0.22 225.39 C75.7 139.52, 150.5 52.24, 195.87 0.35 M1.19 232.04 C64.08 155.51, 129.47 80.53, 201.45 0.13 M0.56 231.36 C61.21 160.66, 122.31 90.53, 201.95 0 M0.43 238.84 C46.41 182.96, 92.53 130.63, 207.12 -0.19 M0.36 237.08 C82.57 141.92, 165.54 48.39, 206.52 -0.08 M-0.2 244.91 C80.1 150.41, 163.6 55.56, 210.59 -0.89 M0.65 244.24 C55.53 181.12, 111 115.74, 212.55 -0.21 M0.15 249.75 C77.61 158.77, 155.82 67.45, 217.7 -1.14 M-0.89 250.6 C78.47 161.58, 155.93 71.8, 217.39 -0.42 M-0.28 255.91 C55.74 193.18, 111.02 127.67, 222.15 0.42 M-0.38 255.54 C89.37 155.84, 176.89 55.95, 221.97 0.35 M1.05 261.14 C89.3 161.08, 178.57 58.15, 228.1 0.46 M-0.56 262.46 C53.14 198.71, 107.02 137.03, 227.9 0.06 M0.28 267.13 C84.53 172.17, 165.91 75.19, 232.07 0.28 M-0.27 267.36 C81.74 174.84, 162.72 82.04, 232.66 -0.03 M1.07 275.39 C59.43 208.06, 114.96 141.75, 238.79 0.93 M0.41 274.36 C54.07 212.17, 106.47 149.93, 238.4 0.94 M-0.79 280.33 C66.93 200.33, 135.81 122.67, 244.49 0.86 M-0.02 280.49 C70.78 198.85, 141.04 116.71, 243.82 -0.27 M-0.81 287.02 C73.85 203.14, 147.1 119.56, 248.58 1.43 M0.17 285.98 C78.72 194.65, 158.39 102.52, 248.84 0.41 M0.19 291.68 C87.41 193.45, 174.28 92.95, 253.62 -0.33 M0.39 292.96 C79.97 200.93, 159.16 108.64, 254.39 -0.5 M-0.62 298.76 C91.12 193.35, 183.89 89.47, 258.38 -0.4 M0.27 298.3 C88.69 197.54, 177.28 96.16, 259.92 0.81 M-0.92 303.79 C100.47 186.39, 201.83 69.83, 266.09 -0.48 M0.56 304.65 C56.03 239.12, 112.05 174.04, 265.36 0.34 M0.07 311.81 C68.43 232.74, 136.31 153.61, 270.78 0.95 M-0.13 310.78 C85.98 210.46, 173.22 110.45, 269.66 0.77 M0.68 317.44 C107.49 192.99, 214.81 70.24, 274.67 -1.16 M-0.19 316.52 C83.95 220.62, 168.21 124.16, 276.11 0.01 M-0.16 323.32 C76.54 237.1, 153.46 149.63, 280.72 0.93 M-0.2 323.02 C85.06 223.41, 171.04 124.6, 280.81 -0.21 M-0.09 328.56 C78.92 237.31, 158.01 147.4, 285.85 0.73 M-0.18 328.95 C64.56 255.24, 128.91 181.32, 286.85 -0.18 M-0.07 335.26 C92.81 230.97, 184.59 124.65, 291.17 1.13 M-0.34 335.74 C104.26 214.31, 210.44 93.39, 291.8 0.02 M-1.11 341.68 C86.43 243.78, 173.81 142.37, 295.33 2.6 M-0.49 341.62 C91.73 237.25, 183.37 132.16, 295.45 2.19 M0.18 347.04 C96.4 235.63, 194.15 123.37, 294.66 8.67 M0.31 347.11 C108.39 222.46, 217.1 96.94, 294.29 8.27 M0.46 354.1 C64.67 277.19, 133 200.88, 294.79 13.83 M0.02 353.59 C67.81 275.27, 136.11 197.2, 294.89 13.96 M0.59 358.48 C84.99 260.97, 170.76 163.4, 294.14 21.05 M0.35 359.32 C66.47 285.24, 131.96 209.3, 295.11 20.22 M0.94 364.87 C116.65 231.14, 233.7 96.93, 294.34 27.29 M-0.22 365.73 C108.07 240.45, 215.23 116.89, 294.16 26.4 M0.68 372.42 C62.16 298.92, 124.56 227.23, 294.93 32.02 M-0.64 372.42 C68.26 293.28, 136.39 213.68, 294.74 32.83 M0.31 377.46 C76.35 289.25, 150.7 203.07, 293.81 39.88 M-0.05 377.76 C62.27 309.59, 122.48 240.45, 294.44 39.41 M2.78 380.91 C99.61 267.24, 197.65 155.14, 294.39 44.25 M2.15 381.28 C96.66 270.55, 191.7 161.11, 295.44 44.51 M6.9 382.54 C119.64 253.86, 232.58 123.02, 295.07 51.12 M7.12 381.64 C111.85 263.09, 214.5 143.7, 294.58 51.32 M13.91 381.47 C108.34 269.52, 206.81 157.25, 294.24 56.68 M12.91 381.03 C80.78 303.29, 149.9 223.68, 295.09 56.87 M19.17 380.85 C110.81 276.09, 201.19 170.88, 294.96 64.02 M17.9 381.79 C116.87 267.92, 214.84 155, 294.79 62.63 M24.87 380.23 C120.96 271.65, 216.37 161.8, 295.52 69.33 M24.08 381.28 C117.14 272.4, 211.41 164.8, 294.57 68.93 M29.17 381.93 C117.01 282.95, 203.9 184.04, 294.3 75.96 M28.76 381.35 C89.17 313.19, 150.25 243.29, 294.93 75.11 M34.26 380.95 C115.81 289.91, 195.27 196.08, 293.98 81.76 M34.48 380.51 C88.13 320.41, 142.17 259.08, 295.18 81.61 M39.6 380.31 C130.99 271.4, 226.65 164.67, 293.62 87.22 M39.57 381.43 C124.07 282.22, 211.69 182.05, 294.95 88.22 M45.39 381.38 C144.8 266.24, 244.19 152.83, 293.86 94.11 M44.71 380.59 C96.47 320.68, 148.79 260.2, 294.69 93.37 M50.27 380.83 C144.16 271.88, 239.69 164.45, 295.84 101.09 M50.38 381.61 C137.7 277.62, 227.03 176.63, 295.28 100.2 M54.88 381.72 C112.68 314.29, 169.96 248.43, 294.22 105.78 M55.11 381.32 C142.9 279.67, 231.68 179.25, 295.66 105.65 M59.85 380.77 C117.85 318.5, 173.76 254.75, 294.71 111.68 M60.22 380.83 C126.21 305.77, 192.03 230.28, 295.04 111.63 M66.8 380.08 C128.11 304.81, 193.73 231.34, 294.75 118.51 M66.9 381.29 C133.88 302.72, 200.71 226.01, 294.16 117.71 M71.01 381.37 C141.91 298.57, 212.81 216.95, 294.52 124.91 M70.83 381.32 C158.89 279.52, 248.85 176.15, 294.9 123.74 M77.28 380.9 C122.7 325.72, 167.47 272.16, 296.01 131.12 M76.38 381.02 C128.02 322.79, 177.07 265.76, 294.68 129.81 M82.89 380.36 C156.25 292.24, 233.81 203.75, 294.97 137.11 M81.72 380.9 C151.92 299.94, 223.29 217.74, 295.19 136.69 M86.95 381.8 C162.95 296.6, 236.7 211.23, 295.28 143.78 M86.46 381.7 C133.8 328.07, 180.85 275.26, 294.87 142.75 M93.3 379.94 C136.75 330.31, 181.32 278.14, 295.29 148.15 M92.55 380.78 C137.75 330.73, 182.43 279.42, 295.14 148.65 M97.51 383.04 C150.84 322.61, 203.87 261.79, 294.77 154.86 M97.89 381.46 C165.42 303.23, 231.74 226.53, 294.48 154.52 M104.37 381.7 C158.48 315.19, 217.63 251.3, 293.88 161.96 M103.2 381.72 C164.38 313.13, 223.92 242.56, 295.46 161.2 M108.91 381.51 C167.41 312.59, 228.67 244.51, 295.82 167.55 M108.73 381.94 C156.82 324.81, 206.28 267.45, 295.01 166.68 M114.22 380.24 C174.47 314, 234.96 244.36, 296.28 173.75 M113.78 380.83 C181.71 301.95, 249.22 225.42, 294.27 172.62 M118.16 380.46 C183.74 307.08, 248.92 232.15, 294.79 178.98 M119.39 382 C170.96 321.15, 224 259.75, 294.65 179.56 M125.7 381.11 C187.4 305.73, 254.12 234.07, 293.82 184.07 M124.7 380.54 C174.65 326.42, 223.86 270.69, 294.48 184.96 M128.64 380.96 C168.81 335.77, 209.75 287.2, 294.73 192.15 M129.8 382.08 C188.38 312.74, 248.4 243.76, 295.28 192.11 M134.08 379.65 C173.36 337.38, 213.22 290.96, 296.72 197.47 M135.06 381.29 C174.64 335.88, 212.92 291.72, 295.54 197.4 M141.06 381.43 C179.71 333.76, 221.74 286.76, 295.52 201.78 M139.35 381.16 C196.58 315.72, 252.99 249.96, 295.5 203.2 M146.21 379.72 C187.32 334.97, 225.19 290.36, 295.71 210.19 M145.83 381.11 C198.9 319.4, 253.47 259.09, 293.9 209.9 M149.57 380.66 C196.74 327.99, 245.6 272.57, 296.35 213.79 M150.23 381.68 C189.72 335.3, 229.09 289.18, 294.79 215.19 M157.77 380.97 C199.43 334.34, 238.3 286.41, 293.18 223.28 M156.67 380.59 C192.26 340.14, 228.01 296.67, 294.05 221.93 M162.17 381.46 C189.43 347.52, 220.43 312.03, 294.75 226.51 M160.77 381.15 C192.73 344.53, 224.18 308.5, 294.63 228.2 M165.87 381.91 C214.71 326.43, 259.71 270.68, 293.51 233.69 M167.54 381.45 C204.67 335.93, 243.79 291.54, 294.72 233.69 M173.49 380.21 C213.02 336.87, 254.05 288.35, 292.99 241.39 M172.15 380.55 C200.67 348.55, 230.56 315.07, 294.53 240.5 M177.35 379.17 C200.42 351.22, 223.12 325.9, 295.76 245.33 M178.57 380.96 C215.48 336.05, 252.82 290.99, 294.6 246.66 M181.06 381.42 C213.77 344.25, 248.29 308.97, 294.62 252.27 M183.18 381.41 C211.09 348.08, 239.46 314.27, 294.42 252.62 M189.36 380.99 C217.25 347.91, 245.9 316.97, 294.24 259.5 M187.73 382.03 C222.3 343.33, 258.18 302.66, 295.47 258.54 M191.24 382.46 C227.77 343.01, 265.02 300.22, 295.1 265.75 M193.8 381.23 C225.12 345.8, 256.03 309.02, 294.37 264.92 M199.15 380.09 C235.24 337.87, 272.45 294.43, 295.14 270.76 M197.27 382.52 C235.08 340.73, 269.77 300.42, 293.91 269.89 M202.64 381.39 C225.43 356.67, 243.66 332.77, 296.96 274.46 M203.35 381.73 C225.11 357.81, 244.75 332.17, 295.54 276.04 M208.31 382.09 C232.38 355.73, 256.64 327.98, 294.93 284.07 M209.79 381.71 C233.26 353.2, 258.99 326.18, 293.81 283.21 M214.15 380.93 C232.24 358.86, 252.54 335.93, 296.99 289.72 M214.53 380.77 C234.79 357.38, 253.36 335.61, 295.41 287.8 M221.42 382.58 C239.55 360.14, 257.71 339.32, 296.42 295.36 M218.92 381.3 C248.12 349.42, 276.3 315.43, 294.4 295.38 M225.01 380.5 C248.48 353.16, 276.91 320.89, 293.67 302.32 M225.38 380.35 C238.91 364.11, 252.5 349.34, 295.17 301.93 M229.34 379.82 C247.58 361.32, 264.16 340.64, 295.4 308.5 M230.62 382.14 C249.42 358.94, 269.84 337.99, 294.96 306.7 M234.73 380.21 C246.28 366.49, 260.17 350.84, 293.74 311.45 M235.29 380.65 C259.1 354.23, 281.89 329.08, 294.31 313.03 M241.27 382.76 C257.21 361.43, 276.46 342.72, 295.96 320.02 M241.19 382.21 C261.2 356.69, 283.27 331.71, 296.09 319.63 M247.17 380.86 C255.28 369.84, 265.96 357.7, 296.32 325.24 M246.97 382 C261.22 365.45, 274.53 348.44, 294.69 325.16 M252.7 383.05 C263.26 367.94, 274.4 356.43, 293.84 331.91 M251.28 380.68 C265.32 364.3, 279.89 348.07, 295.07 331.53 M258.49 379.93 C266.69 369.87, 273.81 360.79, 295.44 337.77 M256.49 380.89 C271.03 364.39, 286.75 347.5, 295.19 336.74 M261.45 383.01 C271.69 368.6, 283.66 359.69, 295.09 344.59 M261.88 381.86 C271.78 369.9, 282.01 359.42, 294.5 343.66 M269.15 379.59 C277.59 367.42, 286.99 357.93, 295.51 349.82 M267.28 381.95 C274.24 373.79, 279.61 366.88, 295 349.37 M271.65 379.65 C278.47 376.95, 281.93 369.18, 296.08 357.43 M272.33 381.22 C280.71 370.74, 290.58 360.25, 294.37 355.7 M279.93 382.7 C285.24 373.65, 292.01 367.83, 294.54 361.58 M278.09 381.99 C282.33 376.14, 288.35 368.93, 295.03 362.55 M281.88 380.75 C286 378.81, 288.55 376.12, 294.24 369.51 M282.4 381.39 C285.36 378.23, 288.94 375.32, 294.68 368.62 M288.47 380.91 C290.6 379.09, 291.3 378.27, 294.83 373.97 M288.96 381.43 C290.53 379.51, 291.31 378.51, 294.67 374.42" stroke="#ced4da" stroke-width="0.5" fill="none"></path><path d="M0.39 0.28 C111.98 -1.17, 222.61 1.24, 293.65 1.07 M-0.29 -0.44 C88.83 -0.88, 178.71 -0.97, 291.85 -0.06 M292.7 -0.71 C290.65 141.14, 290.06 281.7, 291.54 379.73 M292.76 -0.02 C290.47 107, 291.11 214.06, 292.28 379.59 M291.02 380.02 C179.69 380.39, 68.29 380.68, 1 379.06 M291.8 379.08 C179.55 378.32, 66.28 378.72, 0.28 379.88 M-0.15 380.03 C-1.44 269.22, -1.39 156.61, 0.86 0.54 M0.39 379.48 C0.32 301.83, 0.32 223.54, -0.14 -0.07" stroke="#000000" stroke-width="1" fill="none"></path></g><g transform="translate(1749.9250832989137 337.6524883327761) rotate(0 55.5 23)"><text x="0" y="32" font-family="Virgil, Segoe UI Emoji" font-size="36px" fill="#000000" text-anchor="start" style="white-space: pre;" direction="ltr">Wallet</text></g><g transform="translate(1729.7311736976703 505.1246889441286) rotate(0 90.5 38.5)"><text x="0" y="17.666666666666668" font-family="Virgil, Segoe UI Emoji" font-size="20px" fill="#000000" text-anchor="start" style="white-space: pre;" direction="ltr">- DC wallet (DCC)</text><text x="0" y="43.333333333333336" font-family="Virgil, Segoe UI Emoji" font-size="20px" fill="#000000" text-anchor="start" style="white-space: pre;" direction="ltr">- MATTR</text><text x="0" y="69" font-family="Virgil, Segoe UI Emoji" font-size="20px" fill="#000000" text-anchor="start" style="white-space: pre;" direction="ltr">- EBSI compatible</text></g><g stroke-linecap="round" transform="translate(807.173146241097 378.20919410795045) rotate(0 134.43932429688203 38.31845475128512)"><path d="M0.86 -1.52 C85.6 -2.05, 168.36 -1.38, 270.25 0.65 M-0.62 -0.65 C94.66 -2.59, 189.2 -2.62, 268.26 0.64 M267.3 -0.16 C268.95 18.69, 267 34.46, 269.66 75.53 M268.1 -0.15 C268.83 21.96, 268.56 44.12, 269.51 76.58 M268.28 75.08 C162.27 76.1, 56.17 76.01, 1.08 77.83 M269.19 76.51 C193.44 77.57, 116.95 77.64, -0.3 76.12 M0.02 77.81 C-1.06 51.79, 1.23 21.96, -1.23 0.19 M0.14 76.2 C0.21 46.05, 1.12 15.96, 0.95 -0.32" stroke="#000000" stroke-width="1" fill="none"></path></g><g transform="translate(826.6571062841233 386.2963621423712) rotate(0 117 31)"><text x="0" y="14.666666666666668" font-family="Virgil, Segoe UI Emoji" font-size="16px" fill="#000000" text-anchor="start" style="white-space: pre;" direction="ltr">Create redirect/QR code with</text><text x="0" y="35.333333333333336" font-family="Virgil, Segoe UI Emoji" font-size="16px" fill="#000000" text-anchor="start" style="white-space: pre;" direction="ltr">request parameters for </text><text x="0" y="56" font-family="Virgil, Segoe UI Emoji" font-size="16px" fill="#000000" text-anchor="start" style="white-space: pre;" direction="ltr">specific wallet </text></g><g transform="translate(848.7389276662199 197.95141505978324) rotate(0 86 10.499999999999943)"><text x="0" y="15" font-family="Virgil, Segoe UI Emoji" font-size="16px" fill="#000000" text-anchor="start" style="white-space: pre;" direction="ltr">Select wallet backend</text></g><g stroke-linecap="round" transform="translate(775.9988101722547 175.57600966047607) rotate(0 165.61366036572412 68.1938601505924)"><path d="M-0.93 1.09 C91.11 0.47, 180.95 0.3, 332.02 -0.38 M-0.18 0.29 C95.59 -0.43, 190.26 0.27, 330.59 0.46 M329.59 -1.51 C330.91 51.42, 330.67 100.57, 331.52 135.93 M330.74 0.09 C331.89 35.71, 332.43 70.96, 331.81 135.58 M331.78 136.35 C247.21 138.54, 166.36 139.11, -0.53 136.54 M330.93 136.43 C241.65 133.93, 152.96 134.91, 0.05 135.85 M-0.24 137.49 C0.07 84.08, -1.73 32.18, 1.23 0.81 M0.94 136.54 C-1.8 98.4, -0.92 59.27, 0.62 0.19" stroke="#000000" stroke-width="1" fill="none"></path></g><g transform="translate(794.1838395457461 227.82682045908996) rotate(0 146.41817861790344 35.62697521266489)"><text x="0" y="12.813487606332465" font-family="Virgil, Segoe UI Emoji" font-size="13.903209839088754px" fill="#000000" text-anchor="start" style="white-space: pre;" direction="ltr">Different wallets may require different</text><text x="0" y="30.62697521266493" font-family="Virgil, Segoe UI Emoji" font-size="13.903209839088754px" fill="#000000" text-anchor="start" style="white-space: pre;" direction="ltr">issue request params</text><text x="0" y="48.440462818997396" font-family="Virgil, Segoe UI Emoji" font-size="13.903209839088754px" fill="#000000" text-anchor="start" style="white-space: pre;" direction="ltr">Some may provide additional REST API</text><text x="0" y="66.25395042532986" font-family="Virgil, Segoe UI Emoji" font-size="13.903209839088754px" fill="#000000" text-anchor="start" style="white-space: pre;" direction="ltr">MATTR has support for secure DID msgs</text></g><g stroke-linecap="round"><g transform="translate(918.8061137638407 321.4357075406301) rotate(0 -0.30285501285368355 24.419431067987375)"><path d="M0.5 -0.61 C0.44 7.5, -0.41 41.01, -0.7 49.45 M-0.69 1.68 C-0.8 9.35, -0.94 39.79, -1.11 47.55" stroke="#000000" stroke-width="1" fill="none"></path></g><g transform="translate(918.8061137638407 321.4357075406301) rotate(0 -0.30285501285368355 24.419431067987375)"><path d="M-10.23 26.11 C-6.14 31.52, -2.95 35.93, -0.14 47.6 M-8.99 25.34 C-7.05 28.87, -5.19 33.05, -1.58 46.65" stroke="#000000" stroke-width="1" fill="none"></path></g><g transform="translate(918.8061137638407 321.4357075406301) rotate(0 -0.30285501285368355 24.419431067987375)"><path d="M6.54 26.32 C6.06 31.74, 4.68 36.1, -0.14 47.6 M7.78 25.55 C6.34 29.16, 4.8 33.31, -1.58 46.65" stroke="#000000" stroke-width="1" fill="none"></path></g></g><g stroke-linecap="round"><g transform="translate(1100.6145191508508 422.005794079163) rotate(0 277.55332480645154 0.3104493386217655)"><path d="M-0.52 1.04 C92.18 1.38, 462.88 1.18, 555.63 1 M1.41 0.54 C93.97 0.66, 462.18 -0.71, 554.48 -0.6" stroke="#000000" stroke-width="1" fill="none"></path></g><g transform="translate(1100.6145191508508 422.005794079163) rotate(0 277.55332480645154 0.3104493386217655)"><path d="M528.03 9.06 C535.19 7.16, 540.52 5.4, 554.78 -1.7 M526.57 9.43 C536.95 6.28, 547.19 2.63, 554.54 -1.1" stroke="#000000" stroke-width="1" fill="none"></path></g><g transform="translate(1100.6145191508508 422.005794079163) rotate(0 277.55332480645154 0.3104493386217655)"><path d="M528 -11.46 C534.98 -8.17, 540.32 -4.73, 554.78 -1.7 M526.54 -11.1 C537.1 -6.36, 547.36 -2.14, 554.54 -1.1" stroke="#000000" stroke-width="1" fill="none"></path></g></g><g stroke-linecap="round" transform="translate(818.8635222669128 475.6289943230822) rotate(0 129.24360161874165 53.25615745093876)"><path d="M0.65 0.28 C55.66 2.82, 113.28 0.41, 257.39 0.58 M-0.69 -0.75 C59.12 -0.01, 117.87 0.19, 259.22 0.21 M257.53 -0.22 C257.53 40.22, 258.55 77.09, 260.04 106.3 M258.14 -0.78 C258.17 26.53, 257.65 52.73, 258.42 106.64 M258.09 106.98 C159.24 106.92, 61.03 108.77, 0.22 106.75 M257.95 106.3 C165.88 108.13, 71.33 108.03, -0.67 106.06 M1.32 105.11 C1.49 80.91, 0.61 55.44, -1.95 1.65 M0.37 106.27 C-0.42 64.87, 0.45 22.06, 0.53 0.27" stroke="#000000" stroke-width="1" fill="none"></path></g><g transform="translate(865.6250263701761 492.8086770442492) rotate(0 86 10.5)"><text x="0" y="15" font-family="Virgil, Segoe UI Emoji" font-size="16px" fill="#000000" text-anchor="start" style="white-space: pre;" direction="ltr">Oauth2 (OIDC) login </text></g><g transform="translate(873.4186103873867 535.6733891389072) rotate(0 73.40748531325437 18.240647865717733)"><text x="0" y="13.240647865717754" font-family="Virgil, Segoe UI Emoji" font-size="14.236603212267516px" fill="#000000" text-anchor="start" style="white-space: pre;" direction="ltr">Open edX oauth login</text><text x="0" y="31.48129573143551" font-family="Virgil, Segoe UI Emoji" font-size="14.236603212267516px" fill="#000000" text-anchor="start" style="white-space: pre;" direction="ltr">can be reused</text></g><g stroke-linecap="round"><g transform="translate(1656.6231334734944 482.3796198969121) rotate(0 -282.32793431341787 -0.16663470446644624)"><path d="M-0.11 -0.07 C-94.26 -0.06, -470.85 -0.49, -564.55 -0.47 M-1.63 -1.16 C-95.45 -0.93, -468.92 0.4, -562.39 0.83" stroke="#000000" stroke-width="1" fill="none"></path></g><g transform="translate(1656.6231334734944 482.3796198969121) rotate(0 -282.32793431341787 -0.16663470446644624)"><path d="M-534.37 -11.32 C-544.37 -4.21, -552.78 -3.06, -563.63 0.87 M-534.53 -9.81 C-544.53 -6.6, -554.41 -1.77, -562.93 0.06" stroke="#000000" stroke-width="1" fill="none"></path></g><g transform="translate(1656.6231334734944 482.3796198969121) rotate(0 -282.32793431341787 -0.16663470446644624)"><path d="M-534.29 9.2 C-544.21 9.54, -552.65 3.91, -563.63 0.87 M-534.45 10.72 C-544.59 6.42, -554.5 3.75, -562.93 0.06" stroke="#000000" stroke-width="1" fill="none"></path></g></g><g stroke-linecap="round"><g transform="translate(1101.9134498203857 567.6059552311001) rotate(0 275.7325046056088 -0.7522921530444364)"><path d="M1.11 0.09 C93.07 0.01, 459.53 0.41, 551.23 0.24 M0.24 -0.91 C92.17 -1.44, 458.99 -1.89, 550.8 -1.76" stroke="#000000" stroke-width="1" fill="none"></path></g><g transform="translate(1101.9134498203857 567.6059552311001) rotate(0 275.7325046056088 -0.7522921530444364)"><path d="M522.76 10.16 C530.17 7.38, 535.4 2.88, 552.75 -0.18 M523.18 8.27 C530.19 5.98, 537.03 2.31, 549.98 -0.99" stroke="#000000" stroke-width="1" fill="none"></path></g><g transform="translate(1101.9134498203857 567.6059552311001) rotate(0 275.7325046056088 -0.7522921530444364)"><path d="M522.76 -10.36 C530.29 -7.88, 535.52 -7.12, 552.75 -0.18 M523.17 -12.25 C530.35 -9.55, 537.19 -8.23, 549.98 -0.99" stroke="#000000" stroke-width="1" fill="none"></path></g></g><g transform="translate(1294.2721473167562 522.6840824435558) rotate(0 52 10.5)"><text x="0" y="15" font-family="Virgil, Segoe UI Emoji" font-size="16px" fill="#000000" text-anchor="start" style="white-space: pre;" direction="ltr">Access token</text></g><g transform="translate(1221.5320298227912 461.63434097540653) rotate(0 170.00000000000006 10.5)"><text x="0" y="15" font-family="Virgil, Segoe UI Emoji" font-size="16px" fill="#000000" text-anchor="start" style="white-space: pre;" direction="ltr">Login using registry data or provided data</text></g><g stroke-linecap="round" transform="translate(820.162452936448 609.4188532851963) rotate(0 129.89306695350916 60.40027613338168)"><path d="M0.24 0.78 C99.75 1.77, 200.01 0.26, 258.75 -1.46 M-0.57 -0.66 C53.61 -0.37, 106.21 -0.44, 259.54 -0.14 M257.92 -0.24 C259.39 35.64, 261.99 72.46, 259.28 118.85 M259.43 0.71 C258.29 48.52, 259.1 95.69, 260.46 120.73 M260.54 121.6 C161.38 122.08, 64.08 120.94, -0.5 122.02 M260.04 121.31 C183.44 120.13, 108.6 120.71, 0.56 120.83 M0.81 120.98 C-0.85 84.86, 0.82 46.88, 0.81 1.42 M-0.54 121.64 C-0.48 85.36, 0.68 48.81, 0.49 0.08" stroke="#000000" stroke-width="1" fill="none"></path></g><g transform="translate(868.2228877092462 643.4846347103194) rotate(0 70 10.5)"><text x="0" y="15" font-family="Virgil, Segoe UI Emoji" font-size="16px" fill="#000000" text-anchor="start" style="white-space: pre;" direction="ltr">Create credential</text></g><g stroke-linecap="round"><g transform="translate(494.8320954928061 665.0614247166229) rotate(0 -0.12104486989812457 22.072164661829106)"><path d="M-0.52 0.99 C-0.95 8.1, -1.59 35.27, -1.66 42.12 M1.42 0.46 C1.24 7.83, 0.99 36.52, 0.44 43.68" stroke="#000000" stroke-width="1" fill="none"></path></g><g transform="translate(494.8320954928061 665.0614247166229) rotate(0 -0.12104486989812457 22.072164661829106)"><path d="M-4.35 21.69 C-3.57 30.56, -1.16 37.08, 0.5 44.76 M-6.62 23.04 C-4.26 30.94, -2.3 37.37, 0.38 44" stroke="#000000" stroke-width="1" fill="none"></path></g><g transform="translate(494.8320954928061 665.0614247166229) rotate(0 -0.12104486989812457 22.072164661829106)"><path d="M10.03 22.24 C5.35 30.84, 2.3 37.15, 0.5 44.76 M7.76 23.59 C5.2 31.2, 2.24 37.45, 0.38 44" stroke="#000000" stroke-width="1" fill="none"></path></g></g><g stroke-linecap="round"><g transform="translate(1655.130293202716 626.5407722724706) rotate(0 -276.9960445508564 -0.21981748694315684)"><path d="M-1 1.05 C-93.42 0.95, -461.74 0.49, -553.86 0.41 M0.67 0.56 C-91.93 0.61, -462.17 -1.15, -554.66 -1.49" stroke="#000000" stroke-width="1" fill="none"></path></g><g transform="translate(1655.130293202716 626.5407722724706) rotate(0 -276.9960445508564 -0.21981748694315684)"><path d="M-524.68 -11.18 C-535.56 -7.64, -545.21 -3.28, -553.71 -2.28 M-526.46 -11.85 C-536.18 -7.24, -545.22 -5.27, -555.21 -2.04" stroke="#000000" stroke-width="1" fill="none"></path></g><g transform="translate(1655.130293202716 626.5407722724706) rotate(0 -276.9960445508564 -0.21981748694315684)"><path d="M-524.76 9.34 C-535.79 5.68, -545.41 2.84, -553.71 -2.28 M-526.55 8.67 C-536.31 6.7, -545.33 2.1, -555.21 -2.04" stroke="#000000" stroke-width="1" fill="none"></path></g></g><g transform="translate(1335.8379287418793 592.8263385984508) rotate(0 45.5 10.5)"><text x="0" y="15" font-family="Virgil, Segoe UI Emoji" font-size="16px" fill="#000000" text-anchor="start" style="white-space: pre;" direction="ltr">Request VC</text></g><g stroke-linecap="round" transform="translate(372.7805006042631 717.3166477921493) rotate(0 158.98748883787573 73.30251692363606)"><path d="M-0.03 1.18 C102.62 0.39, 204 1.52, 317.2 1.26 M-0.25 0.7 C101.01 1.25, 202.88 1.4, 318.37 -0.48 M316.22 -1.09 C315.8 35.15, 315.56 68.22, 319.7 145.23 M318.23 0.65 C316.95 34.82, 317.3 68.73, 317.09 147.39 M317.58 145.53 C245.58 146.12, 171.75 147.2, -1.36 145.59 M317.79 146.23 C231.65 144, 144.68 143.89, -0.09 146.52 M-1.77 145.49 C-0.54 101.09, -0.23 55.8, -1.42 1.76 M0.04 146.83 C-1.05 95.3, -1.18 41.65, -0.46 0.25" stroke="#000000" stroke-width="1" fill="none"></path></g><g transform="translate(400.8300281860521 723.4234532077128) rotate(0 105.5 20.5)"><text x="0" y="14.5" font-family="Virgil, Segoe UI Emoji" font-size="16px" fill="#000000" text-anchor="start" style="white-space: pre;" direction="ltr">Sign credential by specified</text><text x="0" y="35" font-family="Virgil, Segoe UI Emoji" font-size="16px" fill="#000000" text-anchor="start" style="white-space: pre;" direction="ltr">signing service</text></g><g transform="translate(394.4087852074921 790.3584251219527) rotate(0 132.5 31)"><text x="0" y="14.666666666666668" font-family="Virgil, Segoe UI Emoji" font-size="16px" fill="#000000" text-anchor="start" style="white-space: pre;" direction="ltr">- REST API Call with credential </text><text x="0" y="35.333333333333336" font-family="Virgil, Segoe UI Emoji" font-size="16px" fill="#000000" text-anchor="start" style="white-space: pre;" direction="ltr">in a body</text><text x="0" y="56" font-family="Virgil, Segoe UI Emoji" font-size="16px" fill="#000000" text-anchor="start" style="white-space: pre;" direction="ltr">- Integrated signing service?</text></g><g stroke-linecap="round"><g transform="translate(809.8195281537677 645.3412283759437) rotate(0 -93.59918567187168 -101.67166284263556)"><path d="M0.84 1.1 C-30.39 -32.92, -155.61 -170.5, -186.83 -204.44 M-0.17 0.63 C-31.67 -33.24, -156.86 -169.24, -188.04 -203.41" stroke="#000000" stroke-width="1" fill="none"></path></g><g transform="translate(809.8195281537677 645.3412283759437) rotate(0 -93.59918567187168 -101.67166284263556)"><path d="M-159.6 -190.42 C-172.32 -194.44, -178.5 -197.51, -187.92 -203.33 M-161.22 -188.85 C-169.81 -194.06, -179.69 -198.07, -187.88 -204.06" stroke="#000000" stroke-width="1" fill="none"></path></g><g transform="translate(809.8195281537677 645.3412283759437) rotate(0 -93.59918567187168 -101.67166284263556)"><path d="M-174.72 -176.55 C-182.12 -185.53, -183 -193.45, -187.92 -203.33 M-176.34 -174.97 C-179.75 -185.14, -184.38 -193.97, -187.88 -204.06" stroke="#000000" stroke-width="1" fill="none"></path></g></g><g stroke-linecap="round"><g transform="translate(704.8295615293528 817.691715140221) rotate(0 53.33188997518141 -49.92086738553371)"><path d="M-0.67 -1.15 C17.31 -17.55, 89.31 -82.66, 107.34 -98.88 M1.18 0.86 C19.03 -15.85, 88.71 -83.85, 106.3 -100.7" stroke="#000000" stroke-width="1" fill="none"></path></g><g transform="translate(704.8295615293528 817.691715140221) rotate(0 53.33188997518141 -49.92086738553371)"><path d="M91.26 -73.98 C97.6 -80.57, 101.71 -89.29, 105.48 -99.02 M92.26 -73.69 C96.21 -79.75, 100.02 -86.95, 106.24 -100.85" stroke="#000000" stroke-width="1" fill="none"></path></g><g transform="translate(704.8295615293528 817.691715140221) rotate(0 53.33188997518141 -49.92086738553371)"><path d="M76.99 -88.73 C86.93 -91.46, 94.69 -96.4, 105.48 -99.02 M77.99 -88.44 C85.19 -91.16, 92.29 -94.95, 106.24 -100.85" stroke="#000000" stroke-width="1" fill="none"></path></g></g><g stroke-linecap="round"><g transform="translate(1099.7937124732348 709.9937574964999) rotate(0 281.75910540897377 -0.2655035356734743)"><path d="M-0.49 -0.24 C93.19 -0.19, 468.13 0.78, 561.81 0.94 M1.45 -1.41 C95.53 -1.74, 470.27 -0.71, 564.01 -0.69" stroke="#000000" stroke-width="1" fill="none"></path></g><g transform="translate(1099.7937124732348 709.9937574964999) rotate(0 281.75910540897377 -0.2655035356734743)"><path d="M535.41 7.89 C545.12 4.85, 552.56 5.42, 563.72 -2.08 M536.13 10.26 C543.1 6.29, 549.6 5.11, 563.25 -0.57" stroke="#000000" stroke-width="1" fill="none"></path></g><g transform="translate(1099.7937124732348 709.9937574964999) rotate(0 281.75910540897377 -0.2655035356734743)"><path d="M535.44 -12.64 C545.25 -10, 552.69 -3.75, 563.72 -2.08 M536.16 -10.26 C543.04 -9.51, 549.53 -5.98, 563.25 -0.57" stroke="#000000" stroke-width="1" fill="none"></path></g></g><g transform="translate(1347.605197422412 681.7593699583747) rotate(0 66.00000000000006 10.5)"><text x="0" y="15" font-family="Virgil, Segoe UI Emoji" font-size="16px" fill="#000000" text-anchor="start" style="white-space: pre;" direction="ltr">Signed credential</text></g><g transform="translate(1269.9775033419467 396.62687823974306) rotate(0 100.49999999999994 10.5)"><text x="0" y="15" font-family="Virgil, Segoe UI Emoji" font-size="16px" fill="#000000" text-anchor="start" style="white-space: pre;" direction="ltr">Redirect or scan with QR</text></g><g transform="translate(1734.2508275539594 633.9884812934727) rotate(0 101 10.5)"><text x="0" y="15" font-family="Virgil, Segoe UI Emoji" font-size="16px" fill="#000000" text-anchor="start" style="white-space: pre;" direction="ltr">? Desktop or web wallets</text></g><g stroke-linecap="round"><g transform="translate(489.8229250508756 462.504286875984) rotate(0 -0.6910891445110003 22.560414015193487)"><path d="M0.01 -0.09 C0.15 7.31, -0.05 37.21, -0.1 44.97 M-1.44 -1.18 C-1.38 6.33, -1.13 38.65, -1.1 46.3" stroke="#000000" stroke-width="1" fill="none"></path></g><g transform="translate(489.8229250508756 462.504286875984) rotate(0 -0.6910891445110003 22.560414015193487)"><path d="M-9.14 24.87 C-7.81 29.18, -3.58 32.55, -1.76 47.68 M-9.91 24.13 C-7.25 29.74, -4.14 34.7, -1.35 46.22" stroke="#000000" stroke-width="1" fill="none"></path></g><g transform="translate(489.8229250508756 462.504286875984) rotate(0 -0.6910891445110003 22.560414015193487)"><path d="M6.38 24.77 C4.29 29.1, 5.12 32.49, -1.76 47.68 M5.6 24.03 C4.57 29.62, 3.98 34.6, -1.35 46.22" stroke="#000000" stroke-width="1" fill="none"></path></g></g><g stroke-linecap="round"><g transform="translate(541.2251459473782 878.7594251716989) rotate(0 0.4332585780606806 124.45331444184933)"><path d="M-0.27 -0.05 C-0.29 41.82, -0.94 208.65, -1.02 250.03 M1.79 -1.12 C2.22 40.51, 1.16 206.61, 1.15 248.28" stroke="#000000" stroke-width="1" fill="none"></path></g><g transform="translate(541.2251459473782 878.7594251716989) rotate(0 0.4332585780606806 124.45331444184933)"><path d="M-9.09 218.35 C-5.83 225.07, -6.63 234.57, 2.22 247.06 M-8.37 220.73 C-6.81 228.91, -3.61 235.66, 1.01 248.49" stroke="#000000" stroke-width="1" fill="none"></path></g><g transform="translate(541.2251459473782 878.7594251716989) rotate(0 0.4332585780606806 124.45331444184933)"><path d="M11.43 218.42 C10.12 225.08, 4.75 234.56, 2.22 247.06 M12.15 220.8 C7.76 229.06, 5.01 235.79, 1.01 248.49" stroke="#000000" stroke-width="1" fill="none"></path></g></g><g stroke-linecap="round"><g transform="translate(597.9600180770832 1138.1334523765536) rotate(0 -0.007440519910488774 -130.59313204377906)"><path d="M0.47 0.8 C0.42 -42.72, 0.93 -218.32, 0.73 -261.99 M-0.75 0.18 C-0.98 -43.16, -0.26 -217.68, 0.17 -261.07" stroke="#000000" stroke-width="1" fill="none"></path></g><g transform="translate(597.9600180770832 1138.1334523765536) rotate(0 -0.007440519910488774 -130.59313204377906)"><path d="M11.59 -231.6 C4.62 -244.81, 2 -253.38, 1.36 -261.11 M10.55 -233.47 C8.62 -238.73, 4.86 -246.35, -0.18 -261.78" stroke="#000000" stroke-width="1" fill="none"></path></g><g transform="translate(597.9600180770832 1138.1334523765536) rotate(0 -0.007440519910488774 -130.59313204377906)"><path d="M-8.93 -231.73 C-8.03 -244.97, -2.77 -253.49, 1.36 -261.11 M-9.97 -233.6 C-7.07 -238.72, -6.01 -246.31, -0.18 -261.78" stroke="#000000" stroke-width="1" fill="none"></path></g></g><g stroke-linecap="round" transform="translate(410.5090355383562 185.24041172437433) rotate(0 134.76158560871602 58.51035309715053)"><path d="M0.02 1.12 C71.46 1.26, 142.93 1.33, 270.96 0.35 M-0.77 0.15 C74.46 -1.77, 149.47 -2.43, 269.36 -0.53 M269.85 -1.9 C267.75 33.71, 270.47 65.22, 269.88 116.72 M269.71 0.48 C269.05 31.85, 269.78 65.71, 270.37 116.39 M269.11 117 C211.26 117.05, 153.49 115.25, -0.19 118.3 M269.93 117.54 C184.38 116.31, 98.89 117.13, 0.02 116.84 M0.22 116.61 C2.76 70.23, 0.17 27.74, -1.86 -0.74 M-0.14 116.53 C-2.09 93.83, -0.83 69.15, 0.98 -0.94" stroke="#000000" stroke-width="1" fill="none"></path></g><g transform="translate(464.01938863550663 203.49386275675784) rotate(0 67.5 10.5)"><text x="0" y="15" font-family="Virgil, Segoe UI Emoji" font-size="16px" fill="#000000" text-anchor="start" style="white-space: pre;" direction="ltr">Add issuer config</text></g><g transform="translate(436.7688956308805 247.7478067937675) rotate(0 103.5 20.5)"><text x="0" y="14.5" font-family="Virgil, Segoe UI Emoji" font-size="16px" fill="#000000" text-anchor="start" style="white-space: pre;" direction="ltr">Configure supported</text><text x="0" y="35" font-family="Virgil, Segoe UI Emoji" font-size="16px" fill="#000000" text-anchor="start" style="white-space: pre;" direction="ltr">signing service and wallets</text></g><g stroke-linecap="round" transform="translate(81.23422504406813 259.74853877610553) rotate(0 92.33918211881956 57.46448712593144)"><path d="M-1.04 1.53 C47.47 2.02, 94.86 1.29, 185.59 0.04 M-0.56 0.13 C57.19 -0.12, 113.98 0.91, 184.94 0.83 M183.19 -1.82 C182.73 24.22, 183.4 52.05, 183.26 114.6 M185.09 -0.11 C184.07 40.38, 184.2 79.7, 184.89 114.74 M186.32 115.5 C120.88 115.85, 61.28 114.04, 0.44 113 M184.98 114.03 C131.12 113.85, 76.59 114.67, -0.53 114.15 M0.85 115.55 C1.53 84.43, 0.63 53.95, 1.57 0.4 M-0.7 115.59 C0.51 69.78, 0.68 25.53, 0.38 -0.61" stroke="#000000" stroke-width="1" fill="none"></path></g><g transform="translate(93.62630613881487 262.23255688640984) rotate(0 80.5 27)"><text x="0" y="13" font-family="Virgil, Segoe UI Emoji" font-size="13.555813934887311px" fill="#000000" text-anchor="start" style="white-space: pre;" direction="ltr">get data for different </text><text x="0" y="31" font-family="Virgil, Segoe UI Emoji" font-size="13.555813934887311px" fill="#000000" text-anchor="start" style="white-space: pre;" direction="ltr">types of internal</text><text x="0" y="49" font-family="Virgil, Segoe UI Emoji" font-size="13.555813934887311px" fill="#000000" text-anchor="start" style="white-space: pre;" direction="ltr">achievements</text></g><g transform="translate(95.89268750332621 324.76939191950873) rotate(0 61.84840107792337 26.688008684309352)"><text x="0" y="12.792005789539598" font-family="Virgil, Segoe UI Emoji" font-size="13.555813934887313px" fill="#000000" text-anchor="start" style="white-space: pre;" direction="ltr">- programs + skills</text><text x="0" y="30.584011579079196" font-family="Virgil, Segoe UI Emoji" font-size="13.555813934887313px" fill="#000000" text-anchor="start" style="white-space: pre;" direction="ltr">- courses + skills</text><text x="0" y="48.37601736861879" font-family="Virgil, Segoe UI Emoji" font-size="13.555813934887313px" fill="#000000" text-anchor="start" style="white-space: pre;" direction="ltr"></text></g><g stroke-linecap="round" transform="translate(49.23007239383571 436.0495955587455) rotate(0 123.14915577872523 70.85533016698173)"><path d="M1.52 1.45 C61.98 -0.18, 122.15 -0.79, 247.31 0.06 M-0.05 0.03 C60.99 -0.22, 121.07 -1.06, 245.85 -0.63 M244.69 -0.65 C245.4 30.55, 244.68 64.85, 245.85 143.48 M246.9 -0.23 C246.28 48.52, 245.95 96.99, 245.59 142.19 M246.33 143.05 C150.79 140.77, 56.62 140.25, 0.17 141.21 M245.88 141.05 C165.23 141.45, 83.01 141.61, 0.29 141.94 M0.25 142.75 C0.07 94.77, -0.04 46.38, -1.5 -1.31 M-0.91 141.53 C-1.84 109.48, -1.55 76.24, -0.79 0.98" stroke="#000000" stroke-width="1" fill="none"></path></g><g transform="translate(65.19853543562635 437.7981529339593) rotate(0 102.5 20.5)"><text x="0" y="14.5" font-family="Virgil, Segoe UI Emoji" font-size="16px" fill="#000000" text-anchor="start" style="white-space: pre;" direction="ltr">build credentials complaint</text><text x="0" y="35" font-family="Virgil, Segoe UI Emoji" font-size="16px" fill="#000000" text-anchor="start" style="white-space: pre;" direction="ltr">with protocol variations</text></g><g transform="translate(63.73717520504681 492.8392268003197) rotate(0 71 20.5)"><text x="0" y="14.5" font-family="Virgil, Segoe UI Emoji" font-size="16px" fill="#000000" text-anchor="start" style="white-space: pre;" direction="ltr">- Open Badges2.0</text><text x="0" y="35" font-family="Virgil, Segoe UI Emoji" font-size="16px" fill="#000000" text-anchor="start" style="white-space: pre;" direction="ltr"></text></g><g stroke-linecap="round"><g transform="translate(164.36680308729296 379.6199404803208) rotate(0 -0.14341674090249512 23.423702669999784)"><path d="M0.67 0.55 C0.49 7.95, 0.01 37.99, 0.02 45.47 M-0.44 -0.21 C-0.87 7.92, -1.05 39.23, -0.92 47.06" stroke="#000000" stroke-width="1" fill="none"></path></g><g transform="translate(164.36680308729296 379.6199404803208) rotate(0 -0.14341674090249512 23.423702669999784)"><path d="M-7.83 25.8 C-5.31 35.3, -2.34 41.31, -0.65 47.49 M-8.48 26.6 C-7.18 31.42, -4.89 37.49, -1.82 46.4" stroke="#000000" stroke-width="1" fill="none"></path></g><g transform="translate(164.36680308729296 379.6199404803208) rotate(0 -0.14341674090249512 23.423702669999784)"><path d="M7.69 25.76 C4.12 35.35, 1 41.39, -0.65 47.49 M7.04 26.55 C3.77 31.53, 1.48 37.62, -1.82 46.4" stroke="#000000" stroke-width="1" fill="none"></path></g></g><g stroke-linecap="round" transform="translate(10.160610949928468 123.78482698493622) rotate(0 169.44429047723787 382.37428382031567)"><path d="M1.02 -0.81 C71.29 0.23, 143.8 -1.36, 338.58 -0.14 M338.38 0.36 C337.18 224.44, 338.04 447.22, 339.16 764.87 M337.69 764.33 C219.64 762.9, 101.44 764.14, 0.44 765.07 M-0.3 764.92 C0.25 606.23, -0.34 445.56, -0.33 -0.73" stroke="#000000" stroke-width="1.5" fill="none" stroke-dasharray="1.5 7"></path></g><g stroke-linecap="round" transform="translate(349.0491919044041 123.78482698493622) rotate(0 386.8728048064368 382.37428382031567)"><path d="M0.66 -0.78 C285.31 -1.63, 569.77 -3.18, 773.22 -0.78 M773.2 -0.26 C773.53 300.64, 774.29 601.68, 774.52 764.07 M772.96 765.35 C607.64 765.56, 442.1 766.09, 0.72 765.2 M0.57 764.21 C-1.97 606.81, -2.36 448.23, 0.37 0.02" stroke="#000000" stroke-width="1.5" fill="none" stroke-dasharray="1.5 7"></path></g><g transform="translate(44.64927184352581 140.27693891091712) rotate(0 106.5 10.5)"><text x="0" y="15" font-family="Virgil, Segoe UI Emoji" font-size="16px" fill="#000000" text-anchor="start" style="white-space: pre;" direction="ltr">Digital credentials backend</text></g><g transform="translate(375.37167913596113 138.05471668869473) rotate(0 116 10.5)"><text x="0" y="15" font-family="Virgil, Segoe UI Emoji" font-size="16px" fill="#000000" text-anchor="start" style="white-space: pre;" direction="ltr">Verifiable credentials backend</text></g><g stroke-linecap="round" transform="translate(41.65025785277828 678.6024152732373) rotate(0 121.46006662527674 74.97534976868928)"><path d="M-1.42 -0.03 C82.65 -0.06, 168.26 1.29, 243.68 0.43 M-0.53 0.56 C51.51 -0.39, 104.75 0.23, 243.03 -0.4 M243.35 -1.7 C245.32 60.58, 244.35 121.02, 243.62 151.42 M242.52 0.2 C243.28 52.81, 242.99 107.19, 243.56 150.74 M244.22 148.77 C193.02 149.72, 143.69 147.08, 1.13 150.93 M243.44 150.36 C172.49 151.46, 102.1 151.19, 0 149.18 M1.1 150.36 C-2.76 119.6, -1.04 85.28, 0.52 -1.14 M-0.23 149.47 C0.86 92.11, 1.18 34.85, 0.91 -0.45" stroke="#000000" stroke-width="1" fill="none"></path></g><g transform="translate(77.63842574174907 701.0925551807131) rotate(0 73.5 20.5)"><text x="0" y="14.5" font-family="Virgil, Segoe UI Emoji" font-size="16px" fill="#000000" text-anchor="start" style="white-space: pre;" direction="ltr">API clients for</text><text x="0" y="35" font-family="Virgil, Segoe UI Emoji" font-size="16px" fill="#000000" text-anchor="start" style="white-space: pre;" direction="ltr">different backends</text></g><g transform="translate(83.63645372324424 756.5743140095433) rotate(0 45.5 31)"><text x="0" y="14.666666666666668" font-family="Virgil, Segoe UI Emoji" font-size="16px" fill="#000000" text-anchor="start" style="white-space: pre;" direction="ltr">- Badgr</text><text x="0" y="35.333333333333336" font-family="Virgil, Segoe UI Emoji" font-size="16px" fill="#000000" text-anchor="start" style="white-space: pre;" direction="ltr">- Credly</text><text x="0" y="56" font-family="Virgil, Segoe UI Emoji" font-size="16px" fill="#000000" text-anchor="start" style="white-space: pre;" direction="ltr">- Accredible</text></g><g stroke-linecap="round" transform="translate(32.989018710757364 1096.64600957421) rotate(0 130.4049551136037 104.93049876582984)"><path d="M0 0 C0 0, 0 0, 0 0 M0 0 C0 0, 0 0, 0 0 M-0.09 6.94 C0.55 4.27, 1.62 3.92, 4.73 -0.42 M-0.52 6.04 C1.38 5, 2.28 3.28, 5.22 0.44 M-0.99 11.8 C4.84 6.94, 6.57 2.52, 9.04 0.53 M0.28 12.37 C3.19 8.9, 5.77 4.65, 9.94 0.55 M1 19.29 C6.62 12.59, 12.61 5.43, 15.24 -0.19 M0.64 18.55 C4.21 12.06, 8.76 7.57, 15.63 1.09 M0.25 23.15 C4.34 18.85, 13.64 12.1, 20.11 -0.26 M0.29 25.04 C8.49 14.94, 16.07 7.03, 20.53 0.45 M-1.45 29 C6.12 19.94, 13.03 12.21, 27.17 0.1 M0.86 31.02 C5.41 24.64, 12.36 18.01, 26.62 0.92 M1.51 38.02 C12.44 20.8, 22.51 9.21, 31.64 -1.82 M-0.11 37.23 C11.13 24.01, 21.4 11.44, 32.07 -0.91 M-1.6 41.04 C11.39 29.41, 20.14 18.51, 36.91 -1.21 M0.77 43.36 C10.93 30.55, 20.75 19, 37.75 1.09 M-1.66 48.63 C16.03 29.94, 32.88 10, 41.91 0.1 M0.77 49.42 C16.34 30.05, 32.24 12.02, 42.4 -0.39 M0.97 53.76 C11.02 38.96, 26.23 26.34, 46.02 -0.43 M-0.49 55.45 C18.44 33.8, 36.79 11.79, 47.33 1.03 M1.39 61.66 C14.99 43.62, 33.39 23.13, 52.4 -0.23 M-0.3 60.69 C15.76 44.8, 31.33 26.82, 53.6 0.4 M0.83 68.45 C13.07 51.72, 26.95 34.78, 56.89 -1.68 M-0.37 67.31 C18.21 46.21, 38.01 24.73, 58.74 0.59 M-1.18 71.24 C16.86 53.47, 34.23 31.91, 63.39 1.68 M-0.81 73.76 C20.28 49.11, 41.51 25.16, 63.88 -0.74 M1.33 78.33 C24.86 54.99, 46.15 29.06, 68.72 -0.88 M-0.23 80.1 C16.64 60.36, 31.45 41.33, 68.48 0.02 M-0.45 83.71 C22.9 55.64, 46.64 29.82, 73.99 0.49 M0.86 85.76 C29.75 53.03, 57.48 19.15, 73.5 -0.59 M-1.33 93.06 C24.75 61.75, 50.73 34.83, 77.51 -1.78 M0.68 90.66 C17.23 70.96, 32.49 51.74, 80.12 0 M0.69 98.31 C17.24 78.35, 34.23 55.37, 86.12 1.05 M-1.24 96.98 C32.8 59.64, 66.76 21.92, 84.86 -0.55 M0.52 103.75 C31.49 64.98, 65.96 28.72, 88.09 0.06 M-0.14 102.49 C24.67 73.27, 50.73 43.86, 90.34 -0.43 M-1.86 108.23 C37.14 69.25, 68.89 28, 96.49 -1.6 M0 109.85 C30.87 74.48, 60.94 37.85, 96.43 -0.6 M1.34 115.69 C27.02 83.68, 54.42 50.84, 102.08 1.28 M0.92 116.46 C23.19 88.91, 45.39 63.61, 100.92 0.23 M-1.4 121.11 C43.34 72.67, 85.69 26.08, 104.66 -2.24 M0.82 121.48 C40.8 75.97, 81.18 28.23, 106.76 -1.3 M-2.22 129.1 C26.86 98.85, 49.87 69.57, 109.95 -1.3 M-1.13 127.65 C36.41 86.42, 72.52 42.88, 110.71 -0.16 M-1.71 132.02 C39.88 87.63, 76.23 44.74, 116.31 -0.7 M-0.8 134.62 C28.31 103.14, 55.73 71.26, 115.87 0.92 M-0.75 140.14 C30.4 103.56, 62.62 69.48, 122.93 1.32 M0.84 140.25 C29.57 103.79, 60.97 69.95, 121.67 0.7 M2.21 144.21 C48.47 89.98, 100.11 33.34, 125.93 -0.88 M0.24 146.42 C48.13 92.18, 95.67 36.55, 127.82 0.8 M0.01 153.3 C45.44 102.83, 88.28 51.78, 133.05 -1.5 M0.02 152.15 C51.51 93.55, 102.02 36.17, 132.82 -0.47 M-0.45 158 C33.95 121.43, 66.43 83.59, 136.92 1.58 M-0.52 159.17 C44.38 106.61, 89.14 55.98, 136.88 0.69 M1.58 163.15 C45.45 112.8, 91.16 59.32, 141.61 -0.77 M0.37 163.88 C34.78 122.78, 70.88 81.53, 142.5 -0.61 M-1.57 171.13 C48.49 114.13, 93.93 59.76, 147.86 1.04 M-0.53 171.39 C42.06 125.15, 82.63 78.44, 147.81 -0.14 M0.99 176.91 C31.78 138.44, 65.26 100.75, 153.47 1.05 M0.09 177.09 C50.76 119.12, 101.43 61.55, 153.58 -0.3 M0.81 184.34 C47.55 126.62, 95.87 72.03, 160.19 1.32 M-0.16 182.42 C34.62 140.45, 71.13 98.49, 159.55 0.37 M0.53 190.44 C46.94 134.27, 97.93 75.19, 163.86 -1.23 M0.33 188.57 C36.22 146, 72.92 104.21, 164.59 0.35 M0.15 194.41 C42.52 146.17, 84.75 98.01, 170.87 1.01 M0.13 194.61 C43.21 144.97, 85.63 95.81, 169.72 0.4 M0 202.77 C66.29 126.83, 133.98 50.3, 175.53 0.61 M-0.65 200.8 C51.9 143.52, 102 84.06, 175.06 -0.01 M0.67 208.02 C45.58 155.21, 90.43 103.42, 179.47 0.61 M0.77 207.24 C44.19 156.54, 86.81 106.59, 179.43 -0.59 M1.51 211.53 C68.21 133.97, 137.6 53.85, 185.41 -1.35 M1.95 210.7 C42.83 162.87, 84.46 115.81, 185.45 -0.74 M7.24 211.55 C78.4 127.12, 149.88 46.55, 190.72 -0.88 M6.51 210.9 C67.48 143.31, 127.43 74.38, 191.21 -0.5 M11.43 209.96 C65.54 150.21, 119.56 88.4, 197.36 0.93 M11.89 210.39 C57.82 157.73, 105.86 102.78, 196.99 -1 M16.26 211.58 C86.05 134.12, 157.41 52.03, 202.13 0.32 M18.36 211.69 C72.54 149.65, 124.73 88.88, 201.51 0.71 M23.22 210.26 C71.05 153.13, 122.61 97.05, 206.59 0.14 M22.59 210.43 C90.86 135.45, 155.92 60.25, 207.14 0.39 M29.52 210.15 C84.24 144.94, 142.77 80.17, 213.45 0.42 M27.67 211.4 C93.73 137.05, 158.81 61.4, 211.5 -0.43 M34.25 211.15 C98.14 136.7, 162.77 63.49, 218.12 -1.63 M33.88 211.84 C77.1 159.2, 122.4 106.83, 217.29 0.32 M38.09 211.05 C96.99 143.56, 155.48 76.6, 223.5 0.43 M38.21 210.64 C108.65 131.41, 177.58 50.04, 222.39 -0.15 M42.94 210.77 C92.31 152.08, 141.75 95.45, 228.43 0.87 M44.57 211.41 C113.93 130.01, 182.54 49.85, 228.12 -0.94 M48.97 212.07 C106.71 142.86, 166.88 72.98, 233.29 -0.07 M49.99 211.89 C95.97 156.09, 144.4 99.47, 233.95 0.23 M54.03 211.2 C107.14 150.21, 162.03 87.43, 237.01 1.56 M54.61 212.33 C117.35 137.39, 181.16 64.41, 237.44 1 M60.57 211.17 C110.2 153.12, 159.83 97.91, 242.88 0.21 M60.8 211.8 C124.75 137.59, 187.08 63.64, 244.49 0.5 M65.86 212.37 C137.31 127.44, 209.34 45.2, 249.01 1.43 M64.72 211.98 C117.54 150.02, 170.56 90.38, 248.92 0.93 M71.95 212.56 C123.82 149.72, 179.84 87.07, 254.52 1.15 M70.79 211.93 C110.17 166.1, 148.48 121.39, 253.9 -0.02 M75.89 212.82 C120.51 160.22, 163.16 108.93, 259.03 0.8 M75.64 211.88 C127.39 152.63, 179.36 93.32, 258.97 0.8 M82.79 211.41 C147.05 134.17, 212.1 60.25, 264.5 3.51 M80.97 211.08 C130.75 152.35, 181.75 94.37, 263.27 2.87 M86.79 212.8 C126.63 167.7, 168.83 120.71, 262.52 6.93 M86.71 211.57 C145.86 141.72, 205.52 72.27, 263.54 8.15 M93.41 212.27 C131.83 166.29, 172.98 119, 263.59 15.03 M91.62 211.45 C128.14 168.75, 165.51 126.14, 263.01 13.55 M97.23 211.04 C136.97 167.42, 174.35 121.33, 264.22 20.52 M97.3 211.67 C133.35 168.26, 169.53 126.17, 263.35 21 M101.43 210.41 C148.8 155.17, 196.4 101.6, 262.84 27.77 M102.37 210.88 C155.16 152.4, 208.05 91.8, 263.32 26.4 M108.09 211.24 C152.87 160.61, 197.76 107.48, 263.16 32.42 M108.42 210.72 C144.31 167.95, 180.54 126.65, 263.2 32.31 M111.73 210.9 C158.67 156.95, 206.91 102.46, 263.46 39.73 M113.74 210.7 C164.42 153.1, 216.21 93.78, 262.13 39.61 M119.33 212.63 C161.01 160.97, 203.85 113.46, 262.76 43.45 M117.88 211.75 C150.08 175.75, 181.19 141.73, 262.83 45.52 M123.5 212.61 C166.83 163.21, 211.25 114.68, 264.32 51.68 M123.72 211 C161.3 168.31, 198.83 124.4, 262.73 51.78 M129.86 212.66 C163.28 171.75, 198.85 130, 264.75 57.44 M128.59 212.28 C172.34 159.58, 217.97 109.21, 263.69 56.9 M132.74 210.73 C167.29 171.74, 200.15 135.28, 264.64 61.59 M134.72 210.38 C174.35 163.34, 214.55 117.91, 263.16 63.21 M141.16 210.42 C184.03 159.92, 225.51 109.29, 263.9 68.51 M140.36 210.76 C179.2 165.24, 218.06 120, 262.2 68.79 M143.16 212.2 C191.53 160.24, 235.71 106.07, 262.6 76.47 M144.1 212.43 C188.35 164.42, 229.41 114.84, 263.93 74.68 M149.38 211.04 C194.89 160.19, 238.57 110.08, 264.47 83.45 M150.9 210.76 C177.45 180.13, 203.01 150.76, 263.31 82.18 M153.27 210.7 C188.72 173.6, 223.25 134.67, 263.8 85.77 M156.1 210.92 C185.18 174.69, 216.94 138.35, 263.65 86.66 M161.83 210.29 C191.23 172.65, 223.56 138.27, 262.29 92.05 M159.92 211.64 C190.66 177.78, 217.67 146.83, 263.34 92.65 M164.48 210.2 C193.41 178.88, 218.95 149.65, 263.8 101.77 M166.12 212.3 C192.99 182.16, 217.84 151.52, 262.37 99.66 M172.46 209.95 C191.51 188.03, 211.36 166.32, 262.49 107.44 M171.26 212.02 C207.49 171.23, 242.76 128.83, 262.3 105.43 M175.68 210.07 C204.06 181.87, 230.94 150.18, 262.96 112.7 M177.31 210.67 C201.98 182.42, 226.06 154.74, 262.22 111.35 M182.08 209.99 C203.31 187.6, 222.32 163.99, 263.01 118.94 M182.87 211.96 C204.42 188.87, 225.12 163.27, 263.31 118.15 M186.55 209.88 C205.67 188.42, 227.04 164.86, 262.48 123.22 M187.89 212.53 C214.77 179.58, 242.05 148.4, 263.47 125.07 M194.28 212.57 C215.01 187.03, 235.63 161.56, 261.97 128.82 M192.79 210.93 C213.38 187.95, 235.63 163.03, 261.91 129.59 M197.62 213.39 C210.98 197.77, 225.08 182.42, 263.01 135.42 M197.2 210.78 C221.72 184.65, 245.54 155.98, 263.1 136.81 M203.48 210.06 C225.53 187.4, 243.22 162.75, 264.23 141.25 M203.14 211.77 C221.23 191.28, 238.1 171.16, 262.72 142.7 M210.2 212.55 C229.4 185.55, 250.57 163.56, 264.04 149.61 M207.67 210.76 C219.69 198.19, 231.48 184.61, 264.22 147.96 M214.91 212.98 C228.44 195.5, 245.12 176.15, 261.54 154.87 M214.14 210.78 C230.03 192.67, 246.77 172.52, 263.48 155.06 M218.43 211.48 C231.34 195.94, 245.25 181.35, 263.21 161.01 M218.82 212.17 C229.09 199.15, 240.67 186.05, 263.36 160.08 M224.61 210.06 C236.92 197.1, 251.37 180.48, 263.08 167.76 M224.11 211.61 C234.43 199.19, 245.2 186.65, 263.67 165.95 M229.24 210.5 C239.72 203.17, 247.53 191.2, 262.92 172.76 M229.25 211.16 C238.96 201.45, 248.19 190.32, 263.12 173.86 M235.42 212.22 C240.73 202.97, 248.01 195.48, 262.87 178.16 M235.46 211.35 C243.56 202.59, 250.48 192.27, 263.88 179.01 M238.41 210.13 C246.13 202.8, 253.14 195.84, 262.43 184.49 M240.67 212.25 C247.7 202.85, 255.49 194.24, 262.23 185.69 M245.02 212.55 C250.81 203.59, 260.44 194.73, 263.07 193.29 M246.69 210.49 C251.64 204.8, 255.21 199.82, 263.12 191.07 M250.52 211.07 C254.95 205.33, 258.44 201.95, 264.41 197.22 M249.94 212.34 C252.79 208.3, 256.84 204.46, 264.1 196.59 M257.18 210.68 C259.35 207.78, 261.61 206.32, 263.83 202.86 M256.44 210.97 C257.57 209.42, 258.91 208.25, 263.25 203.29" stroke="#ced4da" stroke-width="0.5" fill="none"></path><path d="M-0.03 -0.63 C61.53 -1.27, 123.53 -0.4, 260.41 -0.47 M-0.39 0.69 C100.68 -0.03, 202.19 -0.25, 261.42 -0.07 M261.47 -0.78 C261.79 55.16, 259.79 110.96, 259.94 208.78 M261.52 0.49 C262.46 51.94, 260.94 101.87, 260.1 210.6 M260.06 209.11 C166.99 211.29, 73.65 211.25, -0.02 209.17 M260.43 210.07 C163.01 209.98, 65.98 210.3, -0.28 210.59 M1.43 208.12 C0.05 148.89, 1.58 86.16, 0.18 0.17 M-0.32 210.27 C1.95 160.96, 1.11 110.4, -0.01 0.26" stroke="#000000" stroke-width="1" fill="none"></path></g><g transform="translate(84.01291350809834 1164.0881077761176) rotate(0 73 31)"><text x="0" y="14.666666666666668" font-family="Virgil, Segoe UI Emoji" font-size="16px" fill="#000000" text-anchor="start" style="white-space: pre;" direction="ltr">External </text><text x="0" y="35.333333333333336" font-family="Virgil, Segoe UI Emoji" font-size="16px" fill="#000000" text-anchor="start" style="white-space: pre;" direction="ltr">badges/credentials</text><text x="0" y="56" font-family="Virgil, Segoe UI Emoji" font-size="16px" fill="#000000" text-anchor="start" style="white-space: pre;" direction="ltr">platform</text></g><g stroke-linecap="round"><g transform="translate(159.8659266991939 847.0077722607318) rotate(0 -0.19737484957198603 117.62153512761006)"><path d="M-0.51 -1.2 C-0.64 37.8, -0.59 195.7, -0.57 234.8 M1.43 0.79 C1.06 39.94, -1.36 197.55, -1.82 236.44" stroke="#000000" stroke-width="1" fill="none"></path></g><g transform="translate(159.8659266991939 847.0077722607318) rotate(0 -0.19737484957198603 117.62153512761006)"><path d="M7.74 26.04 C6.58 17.27, 1.03 7.73, -0.68 -1 M9.93 26.94 C7.17 21.06, 5.38 14.24, -0.68 -2.04" stroke="#000000" stroke-width="1" fill="none"></path></g><g transform="translate(159.8659266991939 847.0077722607318) rotate(0 -0.19737484957198603 117.62153512761006)"><path d="M-12.78 26.03 C-7.36 17.35, -6.32 7.81, -0.68 -1 M-10.6 26.93 C-8.54 20.87, -5.51 14.05, -0.68 -2.04" stroke="#000000" stroke-width="1" fill="none"></path></g><g transform="translate(159.8659266991939 847.0077722607318) rotate(0 -0.19737484957198603 117.62153512761006)"><path d="M-13.69 207.16 C-8.02 216.61, -7.11 225.21, -1.99 236.64 M-11.51 208.05 C-10.05 215.26, -7.12 221.7, -2 235.6" stroke="#000000" stroke-width="1" fill="none"></path></g><g transform="translate(159.8659266991939 847.0077722607318) rotate(0 -0.19737484957198603 117.62153512761006)"><path d="M6.83 207.44 C5.91 216.72, 0.23 225.23, -1.99 236.64 M9.01 208.33 C5.65 215.66, 3.77 222.04, -2 235.6" stroke="#000000" stroke-width="1" fill="none"></path></g></g><g transform="translate(175.74213876244653 957.6973509538343) rotate(0 41.5 10.5)"><text x="0" y="15" font-family="Virgil, Segoe UI Emoji" font-size="16px" fill="#000000" text-anchor="start" style="white-space: pre;" direction="ltr">REST API</text></g><g stroke-linecap="round"><g transform="translate(174.44106479238803 591.0491653153179) rotate(0 2.0069037381647092 39.85985303468101)"><path d="M-0.3 0.68 C0.52 14.1, 3.42 66.73, 4.31 79.73 M1.75 -0.01 C2.45 13.15, 2.82 64.73, 3.3 78.05" stroke="#000000" stroke-width="1" fill="none"></path></g><g transform="translate(174.44106479238803 591.0491653153179) rotate(0 2.0069037381647092 39.85985303468101)"><path d="M-6.4 49.85 C-3.63 58.02, -2.67 62.44, 1.91 77.47 M-6.81 49.71 C-5.02 57.33, -1.8 65.16, 3.71 77.84" stroke="#000000" stroke-width="1" fill="none"></path></g><g transform="translate(174.44106479238803 591.0491653153179) rotate(0 2.0069037381647092 39.85985303468101)"><path d="M14.11 49.44 C11.8 57.66, 7.66 62.19, 1.91 77.47 M13.71 49.3 C9.61 57.01, 6.94 64.97, 3.71 77.84" stroke="#000000" stroke-width="1" fill="none"></path></g></g><g transform="translate(416.6257487244404 191.80469302347728) rotate(0 6 10.5)"><text x="0" y="15" font-family="Virgil, Segoe UI Emoji" font-size="16px" fill="#000000" text-anchor="start" style="white-space: pre;" direction="ltr">0</text></g><g transform="translate(796.6632870146103 184.66027642642928) rotate(0 2.5 10.5)"><text x="0" y="15" font-family="Virgil, Segoe UI Emoji" font-size="16px" fill="#000000" text-anchor="start" style="white-space: pre;" direction="ltr">1</text></g><g transform="translate(812.5013507611741 377.4383359616079) rotate(0 6 10.5)"><text x="0" y="15" font-family="Virgil, Segoe UI Emoji" font-size="16px" fill="#000000" text-anchor="start" style="white-space: pre;" direction="ltr">2</text></g><g transform="translate(828.0139099368911 479.63872582515546) rotate(0 6 10.5)"><text x="0" y="15" font-family="Virgil, Segoe UI Emoji" font-size="16px" fill="#000000" text-anchor="start" style="white-space: pre;" direction="ltr">3</text></g><g stroke-linecap="round"><g transform="translate(281.2126551418697 356.66630531720944) rotate(0 53.86508316498117 0.3868168290457561)"><path d="M-0.67 -0.8 C17.59 -0.65, 90.47 -0.17, 108.4 -0.14 M1.18 1.39 C19.43 1.81, 89.73 1.41, 107.75 1.23" stroke="#000000" stroke-width="1" fill="none"></path></g><g transform="translate(281.2126551418697 356.66630531720944) rotate(0 53.86508316498117 0.3868168290457561)"><path d="M-0.7 -8.26 C0.81 -8.46, 2.56 -7.49, 3.75 -6.36 C4.95 -5.23, 6.16 -3.14, 6.46 -1.49 C6.77 0.16, 6.45 2.23, 5.57 3.54 C4.7 4.86, 2.55 5.8, 1.21 6.39 C-0.13 6.98, -0.94 7.54, -2.45 7.07 C-3.97 6.61, -6.77 4.98, -7.88 3.59 C-9 2.2, -9.35 0.3, -9.13 -1.25 C-8.9 -2.79, -8.04 -4.34, -6.52 -5.69 C-5 -7.05, -1.15 -8.84, 0 -9.38 C1.15 -9.92, 0.45 -9.17, 0.39 -8.93 M-1.36 -9.01 C0.23 -9.17, 2.94 -8.81, 4.07 -7.85 C5.2 -6.88, 5.18 -4.92, 5.45 -3.21 C5.71 -1.5, 6.19 1.12, 5.64 2.42 C5.09 3.72, 3.55 3.78, 2.15 4.58 C0.75 5.39, -1.13 7.52, -2.76 7.25 C-4.38 6.97, -6.63 4.11, -7.59 2.92 C-8.56 1.73, -8.95 1.77, -8.57 0.09 C-8.19 -1.59, -6.24 -5.48, -5.33 -7.14 C-4.41 -8.8, -3.8 -9.86, -3.06 -9.87 C-2.32 -9.87, -0.99 -7.35, -0.9 -7.18" stroke="none" stroke-width="0" fill="#000000"></path></g><g transform="translate(281.2126551418697 356.66630531720944) rotate(0 53.86508316498117 0.3868168290457561)"><path d="M107.72 -6.23 C109.23 -6.42, 110.98 -5.45, 112.18 -4.32 C113.37 -3.19, 114.58 -1.11, 114.89 0.54 C115.19 2.19, 114.87 4.27, 114 5.58 C113.12 6.89, 110.97 7.83, 109.63 8.42 C108.3 9.01, 107.49 9.57, 105.97 9.11 C104.46 8.64, 101.65 7.01, 100.54 5.62 C99.43 4.24, 99.07 2.34, 99.3 0.79 C99.52 -0.76, 100.38 -2.3, 101.9 -3.66 C103.42 -5.01, 107.27 -6.81, 108.42 -7.35 C109.57 -7.88, 108.87 -7.14, 108.81 -6.89 M107.07 -6.98 C108.65 -7.14, 111.36 -6.78, 112.49 -5.81 C113.63 -4.85, 113.61 -2.89, 113.87 -1.18 C114.13 0.53, 114.61 3.15, 114.06 4.45 C113.51 5.75, 111.97 5.81, 110.57 6.62 C109.17 7.42, 107.29 9.56, 105.67 9.28 C104.04 9, 101.8 6.15, 100.83 4.96 C99.86 3.76, 99.48 3.8, 99.86 2.13 C100.23 0.45, 102.18 -3.45, 103.1 -5.11 C104.02 -6.77, 104.63 -7.83, 105.36 -7.83 C106.1 -7.84, 107.43 -5.32, 107.52 -5.14" stroke="none" stroke-width="0" fill="#000000"></path></g></g><g transform="translate(833.743353829817 618.742387365334) rotate(0 5.5 10.5)"><text x="0" y="15" font-family="Virgil, Segoe UI Emoji" font-size="16px" fill="#000000" text-anchor="start" style="white-space: pre;" direction="ltr">4</text></g><g transform="translate(595.3738850861786 347.86987147023456) rotate(0 5.5 10.5)"><text x="0" y="15" font-family="Virgil, Segoe UI Emoji" font-size="16px" fill="#000000" text-anchor="start" style="white-space: pre;" direction="ltr">5</text></g><g transform="translate(607.8447714243566 522.8631626694316) rotate(0 5.5 10.5)"><text x="0" y="15" font-family="Virgil, Segoe UI Emoji" font-size="16px" fill="#000000" text-anchor="start" style="white-space: pre;" direction="ltr">6</text></g><g transform="translate(666.1150761617404 722.1100111262922) rotate(0 5 10.5)"><text x="0" y="15" font-family="Virgil, Segoe UI Emoji" font-size="16px" fill="#000000" text-anchor="start" style="white-space: pre;" direction="ltr">7</text></g><g transform="translate(833.9002443295681 705.8957337618599) rotate(0 6.5 10.5)"><text x="0" y="15" font-family="Virgil, Segoe UI Emoji" font-size="16px" fill="#000000" text-anchor="start" style="white-space: pre;" direction="ltr">8</text></g></svg>