<svg version="1.1" xmlns="http://www.w3.org/2000/svg" viewBox="0 0 1824 2575.599634223423" width="3648" height="5151.199268446846">
  <!-- svg-source:excalidraw -->
  
  <defs>
    <style>
      @font-face {
        font-family: "Virgil";
        src: url("https://excalidraw.com/Virgil.woff2");
      }
      @font-face {
        font-family: "Cascadia";
        src: url("https://excalidraw.com/Cascadia.woff2");
      }
    </style>
  </defs>
  <rect x="0" y="0" width="1824" height="2575.599634223423" fill="#ffffff"></rect><g stroke-linecap="round"><g transform="translate(384.36973971261796 329.50614717978544) rotate(0 -0.5490248551343484 1108.626299502012)"><path d="M0.45 0.25 C0.46 369.5, -0.41 1847.18, -0.38 2216.29 M-0.78 -0.67 C-0.91 368.74, -1.69 1848.54, -1.52 2217.92" stroke="#000000" stroke-width="1" fill="none"></path></g></g><g stroke-linecap="round"><g transform="translate(841.0364061850119 334.50614717978556) rotate(0 -0.5633558708962028 1105.3022753974144)"><path d="M0.1 0.3 C0.08 368.53, 0.34 1841.53, 0.18 2209.59 M-1.3 -0.59 C-1.49 367.84, -1.16 1842.84, -0.67 2211.19" stroke="#000000" stroke-width="1" fill="none"></path></g></g><g stroke-linecap="round"><g transform="translate(1297.7030723432426 327.8394805131188) rotate(0 0.43545637220859135 1109.3925887503535)"><path d="M-0.34 0.07 C-0.51 369.91, -0.01 1849.9, 0.09 2219.72 M1.68 -0.94 C1.27 368.45, -0.47 1847.57, -0.81 2217.75" stroke="#000000" stroke-width="1" fill="none"></path></g></g><g stroke-linecap="round" transform="translate(1161.036406379285 127.49609133570925) rotate(0 146.66666666666652 96.66666666666669)"><path d="M0.81 0.21 C100.33 -0.12, 202.54 -1.61, 294.75 0.01 M-0.08 0.34 C59.52 1.58, 119.73 1.59, 293.13 0.17 M291.87 -0.55 C294.56 48.76, 292.79 93.59, 292.46 193.97 M294.03 0.18 C295.85 42.2, 294.63 82.13, 293.34 193.55 M292.33 192.92 C223.24 194.39, 152.1 194.5, -1 194.79 M293.88 193.05 C186.74 194.45, 81.83 195.08, -0.54 193.32 M-0.4 192 C-0.18 151.77, -0.15 106.52, 0.78 0.02 M0.85 194.06 C0.66 145.66, 1.29 98.3, -0.08 0.04" stroke="#000000" stroke-width="1" fill="none"></path></g><g transform="translate(1211.703073045951 161.82942466904262) rotate(0 83.5 18)"><text x="0" y="25" font-family="Virgil, Segoe UI Emoji" font-size="28px" fill="#000000" text-anchor="start" style="white-space: pre;" direction="ltr">Mobile phone</text></g><g transform="translate(1201.8657714586493 270.1389484785662) rotate(0 101.5 13)"><text x="0" y="18" font-family="Virgil, Segoe UI Emoji" font-size="20px" fill="#000000" text-anchor="start" style="white-space: pre;" direction="ltr">browser + DC wallet</text></g><g stroke-linecap="round" transform="translate(700.9768825697597 133.99609133570868) rotate(0 146.66666666666652 96.66666666666669)"><path d="M1.14 0.25 C109.92 -0.5, 220.47 -3.06, 292.96 -0.24 M0.39 0.08 C110.15 1.64, 220.37 1.48, 292.62 -0.72 M294.57 1.1 C295.68 57.22, 296.01 114.9, 294.05 193.8 M293.7 0.09 C291.5 52.13, 291.71 103.02, 293.26 192.76 M294.33 193.45 C185.52 190.55, 78.23 191.61, 1.12 193.65 M293.22 193.84 C219.16 194.37, 146.05 193.87, -0.62 192.78 M-1.7 191.48 C-1.09 136.3, -1.27 79.07, 1.42 0.79 M-0.63 193.31 C1.18 147.38, 0.1 99.46, 0.26 -0.33" stroke="#000000" stroke-width="1" fill="none"></path></g><g transform="translate(781.6435492364258 174.9960913357088) rotate(0 56 18)"><text x="0" y="25" font-family="Virgil, Segoe UI Emoji" font-size="28px" fill="#000000" text-anchor="start" style="white-space: pre;" direction="ltr">Desktop</text></g><g transform="translate(760.0602159030932 243.38498022459743) rotate(0 81.5 18)"><text x="0" y="25" font-family="Virgil, Segoe UI Emoji" font-size="28px" fill="#000000" text-anchor="start" style="white-space: pre;" direction="ltr">browser app</text></g><g stroke-linecap="round" transform="translate(243.1991047919828 133.99609133570868) rotate(0 146.66666666666652 96.66666666666669)"><path d="M0.38 -0.64 C115.84 -0.39, 232.56 -0.4, 293.21 -0.31 M0.13 0.3 C113.89 2.15, 227.04 1.65, 293.11 0.25 M292.73 0.19 C290.86 40.67, 291.29 82.26, 294.24 193.71 M293.29 -0.11 C294.56 67.69, 294.06 136.72, 293.92 192.89 M294.4 192.33 C232.2 193.85, 171.29 194.48, -0.22 192.49 M292.88 193.81 C216.01 195.3, 139.33 194.08, 0.24 193.97 M0.21 193.06 C0.31 121.32, -0.47 46.82, 1.45 0.87 M-0.69 193.7 C-0.12 123.98, 1.65 56.46, -0.67 0.22" stroke="#000000" stroke-width="1" fill="none"></path></g><g transform="translate(359.4213270142045 202.77386911348663) rotate(0 32 18)"><text x="0" y="25" font-family="Virgil, Segoe UI Emoji" font-size="28px" fill="#000000" text-anchor="start" style="white-space: pre;" direction="ltr">User</text></g><g stroke-linecap="round"><g transform="translate(390.2070412999192 469.1468849865024) rotate(0 220.81265822493538 -0.05494992560767287)"><path d="M1.13 0.1 C74.17 0.21, 365.81 -0.53, 439.11 -0.5 M0.27 -0.89 C73.59 -0.52, 367.96 0.33, 441.36 0.78" stroke="#000000" stroke-width="1" fill="none"></path></g><g transform="translate(390.2070412999192 469.1468849865024) rotate(0 220.81265822493538 -0.05494992560767287)"><path d="M413.3 9.44 C423.02 8.39, 434.98 4.9, 440.43 -0.53 M413.46 10.95 C421.84 7.64, 429.05 4.39, 441.37 0.98" stroke="#000000" stroke-width="1" fill="none"></path></g><g transform="translate(390.2070412999192 469.1468849865024) rotate(0 220.81265822493538 -0.05494992560767287)"><path d="M413.38 -11.09 C422.88 -4.41, 434.8 -0.16, 440.43 -0.53 M413.55 -9.57 C421.79 -6.95, 428.98 -4.28, 441.37 0.98" stroke="#000000" stroke-width="1" fill="none"></path></g></g><g transform="translate(466.49275558563386 421.7897421293595) rotate(0 130.5 18)"><text x="0" y="25" font-family="Virgil, Segoe UI Emoji" font-size="28px" fill="#000000" text-anchor="start" style="white-space: pre;" direction="ltr">Request credential</text></g><g stroke-linecap="round"><g transform="translate(833.0641841570623 612.0040278436453) rotate(0 -220.45708437069288 0.6685339052332253)"><path d="M0.16 1.05 C-73.44 0.88, -367.63 -0.05, -441.07 -0.1 M-1.22 0.56 C-74.5 0.5, -365.54 1.68, -438.92 1.39" stroke="#000000" stroke-width="1" fill="none"></path></g><g transform="translate(833.0641841570623 612.0040278436453) rotate(0 -220.45708437069288 0.6685339052332253)"><path d="M-408.99 -10.67 C-420.43 -6.13, -428.59 -2.28, -440.81 0.23 M-409.86 -8.63 C-420.83 -3.98, -431.85 -0.44, -438.13 1.75" stroke="#000000" stroke-width="1" fill="none"></path></g><g transform="translate(833.0641841570623 612.0040278436453) rotate(0 -220.45708437069288 0.6685339052332253)"><path d="M-408.98 9.85 C-420.58 7.39, -428.74 4.25, -440.81 0.23 M-409.84 11.89 C-420.76 9.08, -431.78 5.15, -438.13 1.75" stroke="#000000" stroke-width="1" fill="none"></path></g></g><g transform="translate(422.2784698713481 526.5040278436454) rotate(0 189.5 35.5)"><text x="0" y="25.5" font-family="Virgil, Segoe UI Emoji" font-size="28px" fill="#000000" text-anchor="start" style="white-space: pre;" direction="ltr">Display QR code with</text><text x="0" y="61" font-family="Virgil, Segoe UI Emoji" font-size="28px" fill="#000000" text-anchor="start" style="white-space: pre;" direction="ltr">a deep link to mobile wallet</text></g><g stroke-linecap="round"><g transform="translate(390.2070412999192 722.0040278436453) rotate(0 444.5484832603015 -0.9879385040071789)"><path d="M-1.06 -0.61 C147.3 -1.27, 741.53 -3.39, 890.16 -3.65 M0.58 1.68 C148.79 1.12, 741 -1.62, 889.29 -2.61" stroke="#000000" stroke-width="1" fill="none"></path></g><g transform="translate(390.2070412999192 722.0040278436453) rotate(0 444.5484832603015 -0.9879385040071789)"><path d="M860.14 8.06 C868.04 6.13, 878.91 1.94, 891.16 -1.91 M860.22 7.08 C868.24 6.07, 873.55 2.36, 889.5 -3.31" stroke="#000000" stroke-width="1" fill="none"></path></g><g transform="translate(390.2070412999192 722.0040278436453) rotate(0 444.5484832603015 -0.9879385040071789)"><path d="M860.02 -12.46 C868.01 -8.2, 878.91 -6.2, 891.16 -1.91 M860.11 -13.44 C868.08 -9.71, 873.42 -8.67, 889.5 -3.31" stroke="#000000" stroke-width="1" fill="none"></path></g></g><g transform="translate(1198.7070412999196 226.14688498650247) rotate(0 109.5 13)"><text x="0" y="18" font-family="Virgil, Segoe UI Emoji" font-size="20px" fill="#000000" text-anchor="start" style="white-space: pre;" direction="ltr">camera + DC wallet /</text></g><g transform="translate(657.3498984427765 675.1468849865025) rotate(0 243.5 18)"><text x="0" y="25" font-family="Virgil, Segoe UI Emoji" font-size="28px" fill="#000000" text-anchor="start" style="white-space: pre;" direction="ltr">Scan the QR code with the camera</text></g><g stroke-linecap="round"><g transform="translate(1310.3554098829209 769.4181295599133) rotate(0 46.10234530966795 52.29179592892106)"><path d="M-0.71 0.14 C14.4 9.09, 90.4 35.38, 90.78 52.92 C91.16 70.46, 16.4 96.9, 1.58 105.41 M1.12 -0.82 C16.57 8.38, 92.94 36.98, 92.91 54.39 C92.89 71.8, 16.05 95.22, 0.97 103.63" stroke="#000000" stroke-width="1" fill="none"></path></g><g transform="translate(1310.3554098829209 769.4181295599133) rotate(0 46.10234530966795 52.29179592892106)"><path d="M23.28 81.47 C15.78 90.05, 10.87 96.91, 0.39 103.91 M23.21 82.5 C17.85 87.16, 13.53 91.62, 1.39 103.44" stroke="#000000" stroke-width="1" fill="none"></path></g><g transform="translate(1310.3554098829209 769.4181295599133) rotate(0 46.10234530966795 52.29179592892106)"><path d="M31.18 100.41 C21.32 103, 13.93 103.92, 0.39 103.91 M31.12 101.44 C24.06 102.22, 18.13 102.83, 1.39 103.44" stroke="#000000" stroke-width="1" fill="none"></path></g></g><g stroke-linecap="round" transform="translate(1288.7784698713476 686.4501590418806) rotate(0 8.571428571428669 119.12529737319343)"><path d="M-0.13 0.76 C5.78 1.26, 8.14 -1.39, 17.65 1.23 M-0.2 0.85 C5.01 0.14, 9.79 0.77, 17.69 -0.72 M17.45 -1.15 C17.33 56.04, 17.46 111.96, 15.6 237.44 M16.39 0.11 C19.12 70.44, 19.18 139.51, 17.46 238.19 M17.85 238.86 C11.61 239.36, 4.87 237.93, -0.2 238.14 M16.97 237.9 C14.03 237.53, 8.73 237.44, 0.22 238.51 M0.94 237.69 C-0.37 152.83, -1.81 65.46, -1.3 -1 M-0.77 237.57 C2.01 151.83, 2.07 64.07, -0.4 0.13" stroke="#000000" stroke-width="1" fill="none"></path></g><g stroke-linecap="round"><g transform="translate(1278.1747547974237 904.9482210792188) rotate(0 -207.25306281858047 1.1736097769598928)"><path d="M1.02 0.43 C-68.15 0.65, -345.45 1.41, -414.53 1.5 M0.1 -0.39 C-69.28 -0.03, -346.55 2.38, -415.53 2.73" stroke="#000000" stroke-width="1" fill="none"></path></g><g transform="translate(1278.1747547974237 904.9482210792188) rotate(0 -207.25306281858047 1.1736097769598928)"><path d="M-386.69 -7.87 C-397.89 -2.33, -408.28 -1.79, -417.47 1.97 M-386.51 -8.34 C-396.07 -5.51, -404.19 -2.33, -414.86 2.24" stroke="#000000" stroke-width="1" fill="none"></path></g><g transform="translate(1278.1747547974237 904.9482210792188) rotate(0 -207.25306281858047 1.1736097769598928)"><path d="M-386.54 12.65 C-397.83 11.25, -408.26 4.83, -417.47 1.97 M-386.36 12.18 C-395.98 8.74, -404.15 5.65, -414.86 2.24" stroke="#000000" stroke-width="1" fill="none"></path></g></g><g transform="translate(913.9177061435184 869.075463564663) rotate(0 181.5 35.5)"><text x="0" y="25.5" font-family="Virgil, Segoe UI Emoji" font-size="28px" fill="#000000" text-anchor="start" style="white-space: pre;" direction="ltr">Request credential</text><text x="0" y="61" font-family="Virgil, Segoe UI Emoji" font-size="28px" fill="#000000" text-anchor="start" style="white-space: pre;" direction="ltr">using params from deeplink</text></g><g stroke-linecap="round"><g transform="translate(867.9785131825711 978.5560437935313) rotate(0 46.2265123222503 51.78005562384473)"><path d="M0.71 -0.05 C15.92 9.09, 90.58 36.34, 90.72 53.79 C90.86 71.24, 16.39 96.18, 1.58 104.68 M-0.37 -1.12 C15.23 7.77, 92.6 34.78, 92.82 52.06 C93.05 69.33, 16.04 93.5, 0.97 102.51" stroke="#000000" stroke-width="1" fill="none"></path></g><g transform="translate(867.9785131825711 978.5560437935313) rotate(0 46.2265123222503 51.78005562384473)"><path d="M22.6 79.88 C18.17 87.74, 11.95 93.5, 1.72 103.7 M22.38 81.93 C13.79 89.23, 5.97 98.33, 0.16 102.53" stroke="#000000" stroke-width="1" fill="none"></path></g><g transform="translate(867.9785131825711 978.5560437935313) rotate(0 46.2265123222503 51.78005562384473)"><path d="M30.83 98.68 C24.45 101.77, 16.11 102.71, 1.72 103.7 M30.61 100.73 C18.93 100.92, 7.99 102.9, 0.16 102.53" stroke="#000000" stroke-width="1" fill="none"></path></g></g><g stroke-linecap="round"><g transform="translate(862.2779101436076 1133.9740484587078) rotate(0 212.9054997452065 -0.4540783598960729)"><path d="M-0.73 0.7 C70.37 0.71, 355.25 0.31, 426.54 0.33 M1.08 0.03 C72.09 -0.36, 354.95 -1.43, 425.91 -1.61" stroke="#000000" stroke-width="1" fill="none"></path></g><g transform="translate(862.2779101436076 1133.9740484587078) rotate(0 212.9054997452065 -0.4540783598960729)"><path d="M398.93 9.75 C406.52 7.72, 415.59 3.15, 426.84 -2.9 M396.78 8.74 C405.16 4.89, 413.39 2.97, 426.43 -1.66" stroke="#000000" stroke-width="1" fill="none"></path></g><g transform="translate(862.2779101436076 1133.9740484587078) rotate(0 212.9054997452065 -0.4540783598960729)"><path d="M398.86 -10.77 C406.52 -6.8, 415.61 -5.37, 426.84 -2.9 M396.71 -11.78 C404.92 -10.1, 413.17 -6.48, 426.43 -1.66" stroke="#000000" stroke-width="1" fill="none"></path></g></g><g transform="translate(929.445106293475 1095.578053019843) rotate(0 147.5 35.5)"><text x="0" y="25.5" font-family="Virgil, Segoe UI Emoji" font-size="28px" fill="#000000" text-anchor="start" style="white-space: pre;" direction="ltr">Response</text><text x="0" y="61" font-family="Virgil, Segoe UI Emoji" font-size="28px" fill="#000000" text-anchor="start" style="white-space: pre;" direction="ltr">with signed credential</text></g><g stroke-linecap="round" transform="translate(1289.680486388021 1099.4596403397677) rotate(0 8.571428571428669 119.1252973731934)"><path d="M0.72 0.28 C3.97 1.01, 8.65 -0.7, 16.39 0.47 M0.22 -0.13 C7 -0.75, 12.81 -0.24, 17.03 0.34 M16.08 1.64 C16.04 58.66, 14.46 115.23, 17.14 238.89 M16.7 0.05 C19.2 71.5, 18.39 142.3, 16.97 238.31 M16.74 236.67 C11.14 238.44, 6.37 239.54, 1.53 237.03 M17.64 238.21 C12.69 238.79, 10.08 237.61, 0.39 237.97 M-1.64 238.42 C-0.17 180.46, 0.45 121.02, 0.3 -0.06 M0.32 238.91 C1.02 149.74, 0.99 60.72, 0.57 0.42" stroke="#000000" stroke-width="1" fill="none"></path></g><g stroke-linecap="round" transform="translate(830.7739683988484 422.5725263057391) rotate(0 8.571428571428669 119.12529737319343)"><path d="M0.18 1.27 C2.14 0.25, 6.86 1.2, 16.59 1.17 M0.5 0.36 C6.29 0.5, 12.02 -0.71, 16.8 -0.35 M18.12 0.13 C18.83 93.93, 16.16 185.27, 17.76 237.7 M17.6 -0.36 C16.66 92.42, 16.91 184.34, 16.8 237.75 M16.44 239 C12.67 238.31, 7.11 237.67, -1.69 238.55 M16.6 238.46 C11.55 237.57, 5.41 238.38, -0.85 237.99 M-0.31 236.61 C0 171.16, -0.51 106.16, -1.42 1.14 M-0.42 238.3 C0.88 168.61, -0.62 98.28, 0.7 -0.51" stroke="#000000" stroke-width="1" fill="none"></path></g><g stroke-linecap="round" transform="translate(833.6421341362816 884.3472100323434) rotate(0 8.571428571428669 153.477897281776)"><path d="M1.17 -0.11 C5.41 -0.96, 10.2 0.24, 18.65 0.57 M-0.52 0.75 C4.15 -0.02, 7.13 -0.03, 17.17 -0.83 M16.52 0.12 C16.61 82.64, 16.84 161.16, 16.75 307.21 M16.54 0.2 C19.02 74.64, 18.54 148.19, 16.83 307.53 M16.82 308.04 C12.6 308.47, 10.14 305.52, -0.31 307.69 M17.73 307.66 C12.49 306.42, 8.2 306.34, -0.08 307.23 M-0.35 307.92 C-3.03 189.63, -1.43 72.52, -0.27 -0.4 M-0.08 307.11 C0.19 205.51, -0.21 104.85, -0.5 -0.63" stroke="#000000" stroke-width="1" fill="none"></path></g><g stroke-linecap="round"><g transform="translate(1333.420700391634 1168.6606773420458) rotate(0 45.968775186191124 52.52159130270067)"><path d="M0.72 0.4 C16.18 9.21, 92.34 35.46, 92.31 52.77 C92.27 70.07, 15.52 95.51, 0.51 104.22 M-0.37 -0.44 C15.01 8.56, 91.02 36.51, 91.58 54.16 C92.14 71.81, 17.77 97.37, 3 105.48" stroke="#000000" stroke-width="1" fill="none"></path></g><g transform="translate(1333.420700391634 1168.6606773420458) rotate(0 45.968775186191124 52.52159130270067)"><path d="M25.33 85.45 C18.52 89, 13.15 97.3, 4.18 107.23 M24.85 85.66 C18.01 89.97, 13.71 95.21, 3.61 105.77" stroke="#000000" stroke-width="1" fill="none"></path></g><g transform="translate(1333.420700391634 1168.6606773420458) rotate(0 45.968775186191124 52.52159130270067)"><path d="M33.6 104.24 C24.65 102.92, 17.11 106.32, 4.18 107.23 M33.12 104.45 C24.37 104.02, 17.98 104.51, 3.61 105.77" stroke="#000000" stroke-width="1" fill="none"></path></g></g><g stroke-linecap="round"><g transform="translate(1279.676100590109 1328.9324907090984) rotate(0 -441.3160466101492 3.3394691184349767)"><path d="M0 -0.28 C-147.05 0.91, -735.62 6.96, -882.64 8.16 M-1.45 -1.48 C-148.12 -0.68, -733.48 5.02, -880.41 6.63" stroke="#000000" stroke-width="1" fill="none"></path></g><g transform="translate(1279.676100590109 1328.9324907090984) rotate(0 -441.3160466101492 3.3394691184349767)"><path d="M-852.8 -5.46 C-858.11 -1.62, -867.95 0.18, -881.27 4.7 M-851.94 -4.5 C-860.85 -0.79, -869.02 2.18, -879.47 7.48" stroke="#000000" stroke-width="1" fill="none"></path></g><g transform="translate(1279.676100590109 1328.9324907090984) rotate(0 -441.3160466101492 3.3394691184349767)"><path d="M-852.59 15.06 C-858.13 13.22, -868.03 9.35, -881.27 4.7 M-851.73 16.02 C-860.88 13.61, -869.12 10.46, -879.47 7.48" stroke="#000000" stroke-width="1" fill="none"></path></g></g><g transform="translate(606.1084398815483 1293.9326091315306) rotate(0 200 18)"><text x="0" y="25" font-family="Virgil, Segoe UI Emoji" font-size="28px" fill="#000000" text-anchor="start" style="white-space: pre;" direction="ltr">Show credential in the wallet</text></g><g transform="translate(1438.04472232645 797.9123799825783) rotate(0 173 18)"><text x="0" y="25" font-family="Virgil, Segoe UI Emoji" font-size="28px" fill="#000000" text-anchor="start" style="white-space: pre;" direction="ltr">Process deep link params</text></g><g transform="translate(976.8492053765704 1010.3732361055563) rotate(0 113 18)"><text x="0" y="25" font-family="Virgil, Segoe UI Emoji" font-size="28px" fill="#000000" text-anchor="start" style="white-space: pre;" direction="ltr">Issue credential</text></g><g transform="translate(1436.3173982929293 1202.1062038262928) rotate(0 170 18)"><text x="0" y="25" font-family="Virgil, Segoe UI Emoji" font-size="28px" fill="#000000" text-anchor="start" style="white-space: pre;" direction="ltr">Add credential to wallet</text></g><g transform="translate(321.5100558440786 10) rotate(0 482 23)"><text x="0" y="32" font-family="Virgil, Segoe UI Emoji" font-size="36px" fill="#000000" text-anchor="start" style="white-space: pre;" direction="ltr">MIT xPRO + DC wallet process of issuing credentials</text></g><g stroke-linecap="round" transform="translate(10 357.99999999999955) rotate(0 902 1103.7998171117117)"><path d="M0.05 -0.22 C554.76 2.86, 1110.16 1.87, 1803.59 -0.57 M1804.8 0.06 C1805.2 831.17, 1804.58 1662.79, 1804.12 2207.94 M1804.35 2207.42 C1280.98 2209.51, 758.59 2210.41, 0.2 2207.87 M0.12 2207.1 C-1.12 1510.32, -1.37 813.95, 0.32 0.09" stroke="#000000" stroke-width="1.5" fill="none" stroke-dasharray="8 9"></path></g><g transform="translate(17.01005584407767 374.9999999999993) rotate(0 21 13)"><text x="0" y="18" font-family="Virgil, Segoe UI Emoji" font-size="20px" fill="#000000" text-anchor="start" style="white-space: pre;" direction="ltr">ALT</text></g><g stroke-linecap="round"><g transform="translate(12.341585425607718 1421.000000020139) rotate(0 898.5638838532889 0.22712177889377472)"><path d="M0.43 0.15 C300 0.05, 1497.14 0.38, 1796.7 0.31" stroke="#000000" stroke-width="1.5" fill="none" stroke-dasharray="8 9"></path></g></g><g stroke-linecap="round"><g transform="translate(388.56848894716313 1541.2925600737829) rotate(0 444.39446871217865 -0.07838121119362995)"><path d="M0.6 1.1 C148.63 0.87, 741.19 -1.06, 889.34 -1.25 M-0.55 0.63 C147.29 0.55, 740.48 0.41, 888.77 -0.04" stroke="#000000" stroke-width="1" fill="none"></path></g><g transform="translate(388.56848894716313 1541.2925600737829) rotate(0 444.39446871217865 -0.07838121119362995)"><path d="M862.43 11.48 C870.68 7.53, 883.78 0.18, 890.24 1.69 M860.5 10.35 C872.48 5.92, 883.62 2, 888.57 0.91" stroke="#000000" stroke-width="1" fill="none"></path></g><g transform="translate(388.56848894716313 1541.2925600737829) rotate(0 444.39446871217865 -0.07838121119362995)"><path d="M862.4 -9.04 C870.67 -4.89, 883.79 -4.15, 890.24 1.69 M860.47 -10.17 C872.56 -6.48, 883.72 -2.28, 888.57 0.91" stroke="#000000" stroke-width="1" fill="none"></path></g></g><g transform="translate(719.8870399710622 1496.61111111111) rotate(0 130.5 18)"><text x="0" y="25" font-family="Virgil, Segoe UI Emoji" font-size="28px" fill="#000000" text-anchor="start" style="white-space: pre;" direction="ltr">Request credential</text></g><g transform="translate(31.887039971062222 431.61111111110995) rotate(0 151 13)"><text x="0" y="18" font-family="Virgil, Segoe UI Emoji" font-size="20px" fill="#000000" text-anchor="start" style="white-space: pre;" direction="ltr">Request credential on desktop</text></g><g transform="translate(27.387039971062222 1471.61111111111) rotate(0 140.5 13)"><text x="0" y="18" font-family="Virgil, Segoe UI Emoji" font-size="20px" fill="#000000" text-anchor="start" style="white-space: pre;" direction="ltr">Request credential on mobile</text></g><g stroke-linecap="round" transform="translate(1287.7393823054772 1520.8292292208744) rotate(0 8.571428571428669 181.8310787911118)"><path d="M0.48 0.31 C3.69 1.12, 5.8 1.7, 16.01 -1.45 M0.61 -0.35 C7.46 0.49, 13.96 0.53, 16.93 0.08 M17.93 -0.6 C17.27 73.66, 17.78 149.8, 17.3 362.45 M16.86 -0.06 C17.77 82.5, 18.04 166.5, 17.56 364.11 M18.06 363.89 C13.05 363.89, 5.89 363.02, -1.2 364.79 M17.74 363.09 C12.19 362.7, 7.14 364.11, 0.15 363.92 M0.2 363.81 C2.18 257.15, 1.76 148.55, -0.49 -0.42 M-0.46 363.93 C-0.01 269.74, -0.22 175, 0.12 0.3" stroke="#000000" stroke-width="1" fill="none"></path></g><g stroke-linecap="round"><g transform="translate(1322.3289290909988 1582.9410662896485) rotate(0 45.710076838104214 51.52491091488139)"><path d="M-0.4 -0.48 C14.96 8.54, 91.68 36.1, 91.82 53.65 C91.95 71.2, 15.54 96.22, 0.41 104.83 M1.59 -1.78 C16.81 6.92, 90.63 34.42, 90.84 51.84 C91.05 69.27, 17.78 94.18, 2.84 102.76" stroke="#000000" stroke-width="1" fill="none"></path></g><g transform="translate(1322.3289290909988 1582.9410662896485) rotate(0 45.710076838104214 51.52491091488139)"><path d="M23.57 81.77 C19.41 86.04, 13.36 92.82, 4.51 101.7 M24.5 81.2 C17.11 88.4, 10.93 95.39, 2.47 102.57" stroke="#000000" stroke-width="1" fill="none"></path></g><g transform="translate(1322.3289290909988 1582.9410662896485) rotate(0 45.710076838104214 51.52491091488139)"><path d="M31.96 100.49 C25.57 99.62, 17.23 101.28, 4.51 101.7 M32.89 99.92 C22.65 100.89, 13.65 101.6, 2.47 102.57" stroke="#000000" stroke-width="1" fill="none"></path></g></g><g stroke-linecap="round"><g transform="translate(1316.4016506480802 1729.5699287585508) rotate(0 46.2010288534625 52.37006851538911)"><path d="M0.93 0.1 C16.35 9.16, 92.25 36.41, 92.44 53.78 C92.64 71.15, 17.48 95.9, 2.11 104.32 M-0.04 -0.89 C15.28 7.87, 91.49 34.29, 91.79 52.05 C92.09 69.8, 17.09 96.75, 1.77 105.63" stroke="#000000" stroke-width="1" fill="none"></path></g><g transform="translate(1316.4016506480802 1729.5699287585508) rotate(0 46.2010288534625 52.37006851538911)"><path d="M23.22 85.43 C17.95 92.22, 10.47 95.21, 1.71 104.78 M22.22 85.4 C14.38 92.32, 5.56 101.13, 2.35 105.95" stroke="#000000" stroke-width="1" fill="none"></path></g><g transform="translate(1316.4016506480802 1729.5699287585508) rotate(0 46.2010288534625 52.37006851538911)"><path d="M31.83 104.06 C24.12 105.45, 14.12 102.99, 1.71 104.78 M30.83 104.03 C19.51 103.61, 7.32 105.14, 2.35 105.95" stroke="#000000" stroke-width="1" fill="none"></path></g></g><g stroke-linecap="round"><g transform="translate(1275.6804558927224 1858.6838358826924) rotate(0 -207.16646493409166 0.8120615798505924)"><path d="M-1.16 0.23 C-69.99 0.49, -344.99 2.21, -414.04 2.35 M0.44 -0.69 C-68.42 -0.89, -345.84 -0.06, -414.77 0.36" stroke="#000000" stroke-width="1" fill="none"></path></g><g transform="translate(1275.6804558927224 1858.6838358826924) rotate(0 -207.16646493409166 0.8120615798505924)"><path d="M-386.24 -9.34 C-392.08 -9.8, -400.17 -5.01, -415.48 0.09 M-387.37 -10.02 C-398.16 -4.9, -408.92 -2.73, -414.17 0.21" stroke="#000000" stroke-width="1" fill="none"></path></g><g transform="translate(1275.6804558927224 1858.6838358826924) rotate(0 -207.16646493409166 0.8120615798505924)"><path d="M-386.15 11.19 C-392.15 6.38, -400.25 6.83, -415.48 0.09 M-387.29 10.5 C-397.99 7.71, -408.78 1.96, -414.17 0.21" stroke="#000000" stroke-width="1" fill="none"></path></g></g><g transform="translate(911.4234072388172 1822.8110783681366) rotate(0 181.5 35.5)"><text x="0" y="25.5" font-family="Virgil, Segoe UI Emoji" font-size="28px" fill="#000000" text-anchor="start" style="white-space: pre;" direction="ltr">Request credential</text><text x="0" y="61" font-family="Virgil, Segoe UI Emoji" font-size="28px" fill="#000000" text-anchor="start" style="white-space: pre;" direction="ltr">using params from deeplink</text></g><g stroke-linecap="round"><g transform="translate(865.4842142778698 1932.291658597005) rotate(0 46.100146729681 52.16848580049441)"><path d="M0.41 0.26 C15.75 8.89, 90.62 34.74, 90.86 52.02 C91.09 69.29, 16.78 95.01, 1.82 103.9 M-0.83 -0.66 C14.97 8.07, 92.67 35.41, 93.03 53.02 C93.39 70.63, 16.63 96.6, 1.34 104.99" stroke="#000000" stroke-width="1" fill="none"></path></g><g transform="translate(865.4842142778698 1932.291658597005) rotate(0 46.100146729681 52.16848580049441)"><path d="M23.51 82.62 C16.98 89.5, 13.55 92.55, 3.05 103.83 M22.47 85.25 C14.41 91.03, 7.51 99.4, 2.23 105.54" stroke="#000000" stroke-width="1" fill="none"></path></g><g transform="translate(865.4842142778698 1932.291658597005) rotate(0 46.100146729681 52.16848580049441)"><path d="M31.7 101.43 C23.47 104.51, 18.37 103.73, 3.05 103.83 M30.67 104.07 C19.73 102.91, 9.81 104.35, 2.23 105.54" stroke="#000000" stroke-width="1" fill="none"></path></g></g><g stroke-linecap="round"><g transform="translate(859.7836112389059 2087.7096632621815) rotate(0 213.0058103585618 -0.12639951070593725)"><path d="M0.26 -1.02 C71.03 -1, 354.03 0.39, 424.91 0.53 M-1.07 1.05 C70.05 0.68, 356.15 -1.31, 427.08 -1.31" stroke="#000000" stroke-width="1" fill="none"></path></g><g transform="translate(859.7836112389059 2087.7096632621815) rotate(0 213.0058103585618 -0.12639951070593725)"><path d="M397.23 7.35 C408.78 4.98, 416.61 4.1, 425.92 0.06 M399.86 8.56 C404.36 7.5, 411.46 5.46, 427.63 -1.88" stroke="#000000" stroke-width="1" fill="none"></path></g><g transform="translate(859.7836112389059 2087.7096632621815) rotate(0 213.0058103585618 -0.12639951070593725)"><path d="M397.14 -13.17 C408.79 -8.99, 416.65 -3.32, 425.92 0.06 M399.78 -11.97 C404.3 -8.4, 411.41 -5.82, 427.63 -1.88" stroke="#000000" stroke-width="1" fill="none"></path></g></g><g transform="translate(926.9508073887737 2049.313667823317) rotate(0 147.5 35.5)"><text x="0" y="25.5" font-family="Virgil, Segoe UI Emoji" font-size="28px" fill="#000000" text-anchor="start" style="white-space: pre;" direction="ltr">Response</text><text x="0" y="61" font-family="Virgil, Segoe UI Emoji" font-size="28px" fill="#000000" text-anchor="start" style="white-space: pre;" direction="ltr">with signed credential</text></g><g stroke-linecap="round" transform="translate(1287.1861874833203 2053.1952551432414) rotate(0 8.571428571428669 119.12529737319346)"><path d="M0.76 -0.61 C5.28 1.62, 10.02 1.32, 15.86 0 M-0.78 0.51 C3.96 0.85, 8.66 -0.4, 17.82 -0.09 M15.56 -0.72 C17.95 86.26, 16.31 173.06, 15.82 237.13 M16.57 0.82 C17.48 88.4, 16.92 178.2, 17.19 239.05 M17.22 239.58 C12.03 236.82, 5.53 237.28, 1.7 237.47 M16.8 238.26 C13.76 237.55, 10.47 239.2, 0.27 238.38 M-0.32 239.73 C1.16 156.38, 0.59 75.75, -1.56 0.54 M0.06 237.82 C1.58 184.47, 1.88 131.26, 0.83 -0.16" stroke="#000000" stroke-width="1" fill="none"></path></g><g stroke-linecap="round" transform="translate(831.1478352315798 1838.082824835817) rotate(0 8.571428571428669 153.477897281776)"><path d="M-0.61 -0.23 C5.15 -1.07, 8.53 -1.36, 17.14 -1.05 M0.51 -0.13 C7.5 0.63, 12.98 0.83, 17.05 0.56 M16.52 0.07 C18.58 102.03, 18.32 205.63, 16.17 308 M17.85 0.61 C18.47 86.53, 19.4 172.85, 17.84 307.32 M18.47 307.84 C11.03 307.35, 6.99 308.66, -0.78 305.26 M17.15 307.02 C10.51 307.1, 6.33 307.16, 0.13 307.32 M1.28 307.61 C-2.48 221.27, -1.73 133.92, 0.47 -1.11 M-0.37 306.96 C-0.27 239.36, -0.27 171.94, -0.14 0.32" stroke="#000000" stroke-width="1" fill="none"></path></g><g stroke-linecap="round"><g transform="translate(1330.9264014869323 2122.3962921455195) rotate(0 46.24170812176749 51.49230313310363)"><path d="M-0.43 -0.16 C15.23 8.47, 92.49 35.08, 92.91 52.35 C93.33 69.61, 17.38 94.89, 2.11 103.43 M1.55 -1.29 C17.23 7.44, 92.47 35.93, 92.5 53.52 C92.54 71.12, 16.93 95.81, 1.77 104.28" stroke="#000000" stroke-width="1" fill="none"></path></g><g transform="translate(1330.9264014869323 2122.3962921455195) rotate(0 46.24170812176749 51.49230313310363)"><path d="M23.3 85.39 C17.83 89.37, 12.82 92.42, 0.55 106.13 M23.42 84.56 C18.51 88.36, 13.32 93.96, 2.43 104.64" stroke="#000000" stroke-width="1" fill="none"></path></g><g transform="translate(1330.9264014869323 2122.3962921455195) rotate(0 46.24170812176749 51.49230313310363)"><path d="M31.45 104.22 C24.14 104.14, 17.39 103.15, 0.55 106.13 M31.57 103.4 C24.79 102.55, 17.58 103.46, 2.43 104.64" stroke="#000000" stroke-width="1" fill="none"></path></g></g><g transform="translate(974.3549064718691 1964.10885090903) rotate(0 113 18)"><text x="0" y="25" font-family="Virgil, Segoe UI Emoji" font-size="28px" fill="#000000" text-anchor="start" style="white-space: pre;" direction="ltr">Issue credential</text></g><g transform="translate(1433.8230993882316 2155.8418186297663) rotate(0 170 18)"><text x="0" y="25" font-family="Virgil, Segoe UI Emoji" font-size="28px" fill="#000000" text-anchor="start" style="white-space: pre;" direction="ltr">Add credential to wallet</text></g><g transform="translate(1428.3914369768927 1766.3688640517653) rotate(0 173 18)"><text x="0" y="25" font-family="Virgil, Segoe UI Emoji" font-size="28px" fill="#000000" text-anchor="start" style="white-space: pre;" direction="ltr">Process deep link params</text></g><g transform="translate(1414.4280661318235 1592.4838805536965) rotate(0 182 35.5)"><text x="0" y="25.5" font-family="Virgil, Segoe UI Emoji" font-size="28px" fill="#000000" text-anchor="start" style="white-space: pre;" direction="ltr">Create deep link</text><text x="0" y="61" font-family="Virgil, Segoe UI Emoji" font-size="28px" fill="#000000" text-anchor="start" style="white-space: pre;" direction="ltr">and redirect to DC wallet</text></g><g stroke-linecap="round"><g transform="translate(1274.740736277483 2279.5986537218496) rotate(0 -441.52368608228585 3.5564160081903538)"><path d="M-0.15 -0.11 C-147.38 0.97, -736.17 5.72, -882.9 6.87 M-1.68 -1.22 C-148.61 0.03, -734.31 6.79, -880.81 8.33" stroke="#000000" stroke-width="1" fill="none"></path></g><g transform="translate(1274.740736277483 2279.5986537218496) rotate(0 -441.52368608228585 3.5564160081903538)"><path d="M-852.92 -4.22 C-862.47 3.25, -872.12 5.79, -879.42 8.06 M-852.35 -1.92 C-863.68 1.48, -872.92 6.55, -880.64 8.34" stroke="#000000" stroke-width="1" fill="none"></path></g><g transform="translate(1274.740736277483 2279.5986537218496) rotate(0 -441.52368608228585 3.5564160081903538)"><path d="M-852.7 16.3 C-862.38 16.82, -872.11 12.4, -879.42 8.06 M-852.12 18.6 C-863.46 14.54, -872.78 12.14, -880.64 8.34" stroke="#000000" stroke-width="1" fill="none"></path></g></g><g transform="translate(601.1730755689223 2244.5987721442816) rotate(0 200 18)"><text x="0" y="25" font-family="Virgil, Segoe UI Emoji" font-size="28px" fill="#000000" text-anchor="start" style="white-space: pre;" direction="ltr">Show credential in the wallet</text></g><g transform="translate(1502.7462673758137 1667.5171172773507) rotate(0 62 10.5)"><text x="0" y="15" font-family="Virgil, Segoe UI Emoji" font-size="16px" fill="#000000" text-anchor="start" style="white-space: pre;" direction="ltr">(in browser app)</text></g><g transform="translate(1505.190711820259 1810.9060061662396) rotate(0 62.5 10.5)"><text x="0" y="15" font-family="Virgil, Segoe UI Emoji" font-size="16px" fill="#000000" text-anchor="start" style="white-space: pre;" direction="ltr">(DC wallet app)</text></g><g transform="translate(1539.897061026607 841.1441014043351) rotate(0 62.5 10.5)"><text x="0" y="15" font-family="Virgil, Segoe UI Emoji" font-size="16px" fill="#000000" text-anchor="start" style="white-space: pre;" direction="ltr">(DC wallet app)</text></g><g transform="translate(1533.8970610266051 1241.144101404335) rotate(0 62.5 10.5)"><text x="0" y="15" font-family="Virgil, Segoe UI Emoji" font-size="16px" fill="#000000" text-anchor="start" style="white-space: pre;" direction="ltr">(DC wallet app)</text></g><g transform="translate(1523.3256324551785 2196.7155299757637) rotate(0 62.5 10.5)"><text x="0" y="15" font-family="Virgil, Segoe UI Emoji" font-size="16px" fill="#000000" text-anchor="start" style="white-space: pre;" direction="ltr">(DC wallet app)</text></g></svg>