<svg version="1.1" xmlns="http://www.w3.org/2000/svg" viewBox="0 0 2229.8443100280983 2933.0076891439103" width="4459.688620056197" height="5866.015378287821">
  <!-- svg-source:excalidraw -->
  
  <defs>
    <style>
      @font-face {
        font-family: "Virgil";
        src: url("https://excalidraw.com/Virgil.woff2");
      }
      @font-face {
        font-family: "Cascadia";
        src: url("https://excalidraw.com/Cascadia.woff2");
      }
    </style>
  </defs>
  <rect x="0" y="0" width="2229.8443100280983" height="2933.0076891439103" fill="#ffffff"></rect><g stroke-linecap="round"><g transform="translate(780.011668594062 357.68903307656024) rotate(0 -0.43218642589499723 1270.079577168345)"><path d="M-1.09 0.86 C-0.98 423.89, -0.52 2115.55, -0.3 2538.61 M0.54 0.27 C0.55 423.42, -1.24 2116.5, -1.4 2539.89" stroke="#000000" stroke-width="1" fill="none"></path></g></g><g stroke-linecap="round"><g transform="translate(1813.3450014189593 351.0223664098935) rotate(0 -0.41435505143363116 1247.2433757943404)"><path d="M0.86 -0.3 C0.71 415.88, -0.37 2080.17, -0.49 2495.99 M-0.14 -1.5 C-0.54 414.39, -1.62 2077.84, -1.69 2493.98" stroke="#000000" stroke-width="1" fill="none"></path></g></g><g stroke-linecap="round" transform="translate(1676.6783354550016 150.67897723248393) rotate(0 146.66666666666652 96.66666666666669)"><path d="M-0.6 0.28 C61.51 -0.87, 124.02 1.14, 293.81 -0.9 M-0.59 -0.54 C108.54 -1.17, 216.68 -0.87, 293.41 0.41 M293.66 -0.53 C293.05 50.27, 291.98 102.49, 294.5 194.92 M293.61 -0.57 C293.31 75.24, 293.47 152.38, 293.37 193.79 M293.93 193.26 C223.13 193.5, 151.4 194.91, 1.28 192.81 M293.46 193.65 C192.53 192.67, 92.23 193.72, -0.63 192.8 M1.97 194.99 C-1.73 124.36, -0.69 52.52, 1.27 -1.96 M0.27 192.65 C-1.98 140.82, -2.18 88.25, 0.63 0.4" stroke="#000000" stroke-width="1" fill="none"></path></g><g transform="translate(1732.3450021216677 222.51231056581742) rotate(0 101 18)"><text x="0" y="25" font-family="Virgil, Segoe UI Emoji" font-size="28px" fill="#000000" text-anchor="start" style="white-space: pre;" direction="ltr">Sign and Verify</text></g><g stroke-linecap="round" transform="translate(639.9521449788099 157.17897723248348) rotate(0 146.66666666666652 96.66666666666669)"><path d="M-1.41 1.35 C76.69 0.22, 151.3 0.79, 293.49 0.99 M0.28 -0.7 C65.5 0.52, 130.25 0.17, 292.77 -0.17 M292.66 0.1 C293.43 62.32, 294.41 124.19, 294.13 195.11 M292.38 -0.64 C292.2 63.37, 292.68 126.09, 294.27 193.66 M292.79 193.4 C194.45 195.79, 93.31 195.13, -1.4 193.16 M292.93 192.7 C200.85 191.06, 106.56 192.17, 0.28 194 M1.46 193.35 C-1.56 117.6, -3.56 38.76, 1.32 0.17 M-0.01 192.43 C1.23 130.78, 1.71 67.22, 0.48 -0.54" stroke="#000000" stroke-width="1" fill="none"></path></g><g transform="translate(686.868811645476 239.42897723248348) rotate(0 93.5 18)"><text x="0" y="25" font-family="Virgil, Segoe UI Emoji" font-size="28px" fill="#000000" text-anchor="start" style="white-space: pre;" direction="ltr">LMS/CMS app</text></g><g stroke-linecap="round"><g transform="translate(1313.0705003100175 359.14677672432026) rotate(0 0.5726715484056513 1252.4367219719097)"><path d="M0.58 0.84 C0.29 418.23, -0.59 2087.22, -0.62 2504.63 M-0.58 0.24 C-0.56 417.23, 1.7 2085.47, 1.77 2502.68" stroke="#000000" stroke-width="1" fill="none"></path></g></g><g stroke-linecap="round" transform="translate(1173.0109766947662 158.6367208802435) rotate(0 146.66666666666652 96.66666666666669)"><path d="M-0.77 0.4 C95.71 -0.3, 190.28 -0.59, 293 0.13 M0.5 0.38 C107.64 -1.13, 217.42 -1.26, 293.06 -0.48 M293.53 0.17 C293.25 42.49, 292.96 84.6, 293.25 192.57 M294.14 0.29 C294.68 51.6, 295.44 102.47, 292.93 192.77 M292.37 193.27 C181.89 194.13, 69.95 193.82, -1.17 192.44 M293.72 192.64 C178.28 191.03, 62.48 191.95, -0.08 193.85 M0.53 191.4 C3.2 125.77, 1.68 60.92, 0.74 1.31 M-0.69 193.57 C0.87 144.59, 0.65 96.29, 0.85 -0.17" stroke="#000000" stroke-width="1" fill="none"></path></g><g transform="translate(1249.9276433614323 217.55338754691024) rotate(0 74 35.5)"><text x="0" y="25.5" font-family="Virgil, Segoe UI Emoji" font-size="28px" fill="#000000" text-anchor="start" style="white-space: pre;" direction="ltr">MIT DC </text><text x="0" y="61" font-family="Virgil, Segoe UI Emoji" font-size="28px" fill="#000000" text-anchor="start" style="white-space: pre;" direction="ltr">django app</text></g><g stroke-linecap="round" transform="translate(937.5109766947662 232.79027248586328) rotate(0 18.125 10)"><path d="M17.68 -0.05 L35.88 12.79 L17.48 21.88 L-1.29 12.61" stroke="none" stroke-width="0" fill="#000" fill-rule="evenodd"></path><path d="M20.79 -0.01 C26.3 5.5, 31.31 7.42, 34.26 11.98 M37.94 12.68 C30.79 13.44, 23.91 19.6, 19.56 20.72 M18.45 18.66 C16.99 19.51, 11.68 14.5, 0.53 9.8 M1.9 11.24 C8.6 6.71, 14.27 1.69, 19.18 0.79" stroke="#000000" stroke-width="1.5" fill="none" stroke-dasharray="8 9"></path></g><g stroke-linecap="round"><g transform="translate(976.2609766947662 244.04027248586328) rotate(0 97.74140555793065 0.33224973141187775)"><path d="M0.47 -0.79 C33.28 -0.85, 163.41 -0.21, 196.22 -0.22 M-0.74 1.41 C31.96 1.53, 162.28 1.44, 195.26 1.19" stroke="#000000" stroke-width="1" fill="none"></path></g></g><g stroke-linecap="round"><g transform="translate(1339.6776433614323 2475.088082396827) rotate(0 233.84799321768878 1.0242610842809654)"><path d="M-0.21 0.11 C78.06 0.42, 391.13 2.69, 469.47 2.92 M-1.78 -0.88 C76.3 -0.42, 389.79 0.49, 468.25 1.02" stroke="#000000" stroke-width="1" fill="none"></path></g><g transform="translate(1339.6776433614323 2475.088082396827) rotate(0 233.84799321768878 1.0242610842809654)"><path d="M440.2 10.28 C448.74 8.02, 454.5 5.38, 469.15 1.01 M440.82 11.49 C448.58 7.01, 458.77 5.49, 468.02 1.45" stroke="#000000" stroke-width="1" fill="none"></path></g><g transform="translate(1339.6776433614323 2475.088082396827) rotate(0 233.84799321768878 1.0242610842809654)"><path d="M440.29 -10.24 C448.99 -6.61, 454.72 -3.35, 469.15 1.01 M440.92 -9.03 C448.82 -6.95, 458.98 -1.91, 468.02 1.45" stroke="#000000" stroke-width="1" fill="none"></path></g></g><g stroke-linecap="round"><g transform="translate(339.6776426587239 362.77742091054574) rotate(0 -0.5423736374486907 1279.7757955976826)"><path d="M0.61 -0.68 C0.45 425.99, -0.17 2132.29, -0.45 2559.07 M-0.53 1.58 C-0.93 428.47, -1.94 2133.59, -1.64 2560.23" stroke="#000000" stroke-width="1" fill="none"></path></g></g><g stroke-linecap="round" transform="translate(203.0109766947662 162.43403173313595) rotate(0 146.66666666666652 96.66666666666669)"><path d="M-0.56 -0.9 C63.74 1.48, 130.98 0.38, 293.54 -1.11 M-0.49 0.47 C104.29 0.53, 208.85 0.44, 293.96 0.39 M292.27 -0.79 C295.63 48.4, 295.5 100.32, 291.88 194.48 M293.57 -0.08 C290.77 71.8, 291.33 142.06, 293.45 192.61 M294.05 194.25 C185.25 191.02, 79.91 191.51, -0.87 194.62 M293.83 192.81 C213.61 193.53, 134.77 193.16, -0.45 192.73 M-1.7 194.3 C0.7 149.94, -2.71 107.7, 1.21 1.01 M0.8 192.45 C-0.45 153.48, 1.47 114.56, -0.07 -0.34" stroke="#000000" stroke-width="1" fill="none"></path></g><g transform="translate(262.1776433614323 234.82598677157785) rotate(0 87.5 23)"><text x="0" y="32" font-family="Virgil, Segoe UI Emoji" font-size="36px" fill="#000000" text-anchor="start" style="white-space: pre;" direction="ltr">DC wallet</text></g><g transform="translate(1349.6776433614323 2396.588082396827) rotate(0 218 23)"><text x="0" y="32" font-family="Virgil, Segoe UI Emoji" font-size="36px" fill="#000000" text-anchor="start" style="white-space: pre;" direction="ltr">Pass unsigned credential</text></g><g stroke-linecap="round"><g transform="translate(1852.9051170671519 2531.2573776125473) rotate(0 46.13836108272881 51.78002176889879)"><path d="M1.19 0.42 C16.47 9.36, 92.03 36.03, 91.92 53.17 C91.81 70.3, 15.72 94.72, 0.51 103.23 M0.36 -0.41 C15.46 8.8, 90.55 37.37, 90.99 54.77 C91.43 72.17, 18.07 95.55, 2.99 103.97" stroke="#000000" stroke-width="1" fill="none"></path></g><g transform="translate(1852.9051170671519 2531.2573776125473) rotate(0 46.13836108272881 51.78002176889879)"><path d="M25.54 83.49 C17.98 88.9, 8.97 95.7, 2.86 103.27 M25.32 83.94 C19.22 88.51, 14.64 93.09, 2.27 103.01" stroke="#000000" stroke-width="1" fill="none"></path></g><g transform="translate(1852.9051170671519 2531.2573776125473) rotate(0 46.13836108272881 51.78002176889879)"><path d="M33.64 102.34 C23.57 101.82, 11.97 102.59, 2.86 103.27 M33.42 102.79 C25.34 102.83, 18.8 102.85, 2.27 103.01" stroke="#000000" stroke-width="1" fill="none"></path></g></g><g transform="translate(1963.8443100280983 2554.9214157301603) rotate(0 128 23)"><text x="0" y="32" font-family="Virgil, Segoe UI Emoji" font-size="36px" fill="#000000" text-anchor="start" style="white-space: pre;" direction="ltr">Sign credential</text></g><g stroke-linecap="round"><g transform="translate(1793.8443100280983 2700.9214157301603) rotate(0 -498.51006617177245 -2.3871470990847)"><path d="M-0.84 0.09 C-167.08 -0.52, -830.97 -2.37, -996.77 -2.9 M0.92 -0.91 C-165.57 -1.97, -831.78 -4.72, -997.94 -4.86" stroke="#000000" stroke-width="1" fill="none"></path></g><g transform="translate(1793.8443100280983 2700.9214157301603) rotate(0 -498.51006617177245 -2.3871470990847)"><path d="M-969.58 -15.75 C-979.16 -10.45, -989.53 -9.45, -999.1 -3.36 M-969.7 -15.49 C-977.52 -11.98, -982.6 -10.1, -998.01 -3.94" stroke="#000000" stroke-width="1" fill="none"></path></g><g transform="translate(1793.8443100280983 2700.9214157301603) rotate(0 -498.51006617177245 -2.3871470990847)"><path d="M-969.64 4.77 C-979.33 2.79, -989.68 -3.49, -999.1 -3.36 M-969.76 5.03 C-977.49 3.58, -982.56 0.51, -998.01 -3.94" stroke="#000000" stroke-width="1" fill="none"></path></g></g><g transform="translate(1346.3443100280983 2627.4214157301603) rotate(0 214.5 23)"><text x="0" y="32" font-family="Virgil, Segoe UI Emoji" font-size="36px" fill="#000000" text-anchor="start" style="white-space: pre;" direction="ltr">Return signed credential</text></g><g transform="translate(848.8443100280983 2229.92141573016) rotate(0 177 45.5)"><text x="0" y="32.5" font-family="Virgil, Segoe UI Emoji" font-size="36px" fill="#000000" text-anchor="start" style="white-space: pre;" direction="ltr">Generate credential</text><text x="0" y="78" font-family="Virgil, Segoe UI Emoji" font-size="36px" fill="#000000" text-anchor="start" style="white-space: pre;" direction="ltr">for completion type</text></g><g stroke-linecap="round"><g transform="translate(798.5109766947644 2357.9214157301594) rotate(0 245.441495942478 -0.8086948291420413)"><path d="M-0.87 -0.48 C80.59 -0.57, 407.44 -1.14, 489.37 -0.91 M0.88 -1.77 C82.68 -1.71, 410.18 0.01, 491.75 0.15" stroke="#000000" stroke-width="1" fill="none"></path></g><g transform="translate(798.5109766947644 2357.9214157301594) rotate(0 245.441495942478 -0.8086948291420413)"><path d="M462.73 9.26 C471.92 8.14, 484.87 4.9, 493.47 1.07 M462.53 9.8 C474.96 7.43, 485.86 2.75, 491.3 0.28" stroke="#000000" stroke-width="1" fill="none"></path></g><g transform="translate(798.5109766947644 2357.9214157301594) rotate(0 245.441495942478 -0.8086948291420413)"><path d="M462.81 -11.26 C471.91 -5.21, 484.83 -1.27, 493.47 1.07 M462.61 -10.72 C475.09 -5.14, 485.96 -1.86, 491.3 0.28" stroke="#000000" stroke-width="1" fill="none"></path></g></g><g stroke-linecap="round"><g transform="translate(1330.071783733818 1025.4952819872976) rotate(0 45.6821715608271 51.22009060562567)"><path d="M-1.05 -0.24 C14.22 8.81, 91.91 36.73, 92.41 53.97 C92.91 71.2, 17.16 94.89, 1.93 103.15 M0.6 -1.41 C15.68 7.34, 91.59 34.78, 91.74 52.33 C91.89 69.87, 16.59 95.21, 1.5 103.85" stroke="#000000" stroke-width="1" fill="none"></path></g><g transform="translate(1330.071783733818 1025.4952819872976) rotate(0 45.6821715608271 51.22009060562567)"><path d="M22.71 83.91 C16.62 91.58, 5.17 97.8, 0.14 102.65 M22.41 83.64 C15.18 89.95, 7.36 97.21, 1.02 103.84" stroke="#000000" stroke-width="1" fill="none"></path></g><g transform="translate(1330.071783733818 1025.4952819872976) rotate(0 45.6821715608271 51.22009060562567)"><path d="M31.03 102.67 C21.93 103.36, 7.41 102.66, 0.14 102.65 M30.74 102.39 C20.65 101.99, 9.87 102.58, 1.02 103.84" stroke="#000000" stroke-width="1" fill="none"></path></g></g><g transform="translate(1433.5109766947644 1024.1593201049104) rotate(0 181.5 45.5)"><text x="0" y="32.5" font-family="Virgil, Segoe UI Emoji" font-size="36px" fill="#000000" text-anchor="start" style="white-space: pre;" direction="ltr">Create deep link</text><text x="0" y="78" font-family="Virgil, Segoe UI Emoji" font-size="36px" fill="#000000" text-anchor="start" style="white-space: pre;" direction="ltr">with request params</text></g><g stroke-linecap="round"><g transform="translate(1306.0109766947644 1180.1593201049104) rotate(0 -248.80395499220276 0.0332325996769498)"><path d="M-0.7 0.7 C-83.59 0.86, -414.92 0.89, -497.69 0.86 M1.13 0.02 C-81.89 -0.14, -415.54 -0.55, -498.74 -0.81" stroke="#000000" stroke-width="1" fill="none"></path></g><g transform="translate(1306.0109766947644 1180.1593201049104) rotate(0 -248.80395499220276 0.0332325996769498)"><path d="M-469.37 -11.33 C-476.69 -8.19, -484.83 -4.1, -499.48 -1.72 M-470.4 -11.13 C-478.51 -8.76, -487.61 -4.76, -497.91 -0.92" stroke="#000000" stroke-width="1" fill="none"></path></g><g transform="translate(1306.0109766947644 1180.1593201049104) rotate(0 -248.80395499220276 0.0332325996769498)"><path d="M-469.41 9.19 C-476.71 6.8, -484.83 5.38, -499.48 -1.72 M-470.45 9.39 C-478.73 5.35, -487.81 2.95, -497.91 -0.92" stroke="#000000" stroke-width="1" fill="none"></path></g></g><g stroke-linecap="round"><g transform="translate(771.0109766947644 1275.1593201049104) rotate(0 -208.73401491989443 -0.6803065054606918)"><path d="M0.22 0.36 C-69.1 0.31, -347.3 0.35, -417 0.31 M-1.13 -0.5 C-70.46 -0.97, -348.04 -1.98, -417.69 -1.66" stroke="#000000" stroke-width="1" fill="none"></path></g><g transform="translate(771.0109766947644 1275.1593201049104) rotate(0 -208.73401491989443 -0.6803065054606918)"><path d="M-388.89 -11.08 C-394.83 -10.53, -401.08 -6.76, -418.2 -1.35 M-390.07 -11.57 C-396.59 -8.71, -405.64 -7.56, -417.74 -1.51" stroke="#000000" stroke-width="1" fill="none"></path></g><g transform="translate(771.0109766947644 1275.1593201049104) rotate(0 -208.73401491989443 -0.6803065054606918)"><path d="M-388.9 9.44 C-394.94 5.7, -401.18 5.17, -418.2 -1.35 M-390.08 8.96 C-396.71 6.25, -405.75 1.84, -417.74 -1.51" stroke="#000000" stroke-width="1" fill="none"></path></g></g><g transform="translate(376.0109766947644 1204.1593201049104) rotate(0 185.5 23)"><text x="0" y="32" font-family="Virgil, Segoe UI Emoji" font-size="36px" fill="#000000" text-anchor="start" style="white-space: pre;" direction="ltr">Redirect to deep link</text></g><g transform="translate(903.5109766947644 1089.1593201049104) rotate(0 160.5 45.5)"><text x="0" y="32.5" font-family="Virgil, Segoe UI Emoji" font-size="36px" fill="#000000" text-anchor="start" style="white-space: pre;" direction="ltr">Return deep link</text><text x="0" y="78" font-family="Virgil, Segoe UI Emoji" font-size="36px" fill="#000000" text-anchor="start" style="white-space: pre;" direction="ltr">with query params</text></g><g stroke-linecap="round"><g transform="translate(359.1350642860052 2075.4214157301594) rotate(0 202.2966584689657 0.3791823455543408)"><path d="M0.4 0.78 C68.12 1.05, 338.05 1.12, 405.44 1.14 M-0.85 0.15 C66.88 0.16, 337.55 -0.2, 405.05 -0.38" stroke="#000000" stroke-width="1" fill="none"></path></g><g transform="translate(359.1350642860052 2075.4214157301594) rotate(0 202.2966584689657 0.3791823455543408)"><path d="M378.18 11.7 C385.22 8.08, 391.25 6.28, 406.8 -0.23 M377.69 9.25 C388.09 7.22, 398.04 3.2, 404.23 -0.4" stroke="#000000" stroke-width="1" fill="none"></path></g><g transform="translate(359.1350642860052 2075.4214157301594) rotate(0 202.2966584689657 0.3791823455543408)"><path d="M378.14 -8.82 C385.1 -7.78, 391.14 -4.93, 406.8 -0.23 M377.65 -11.27 C387.93 -5.52, 397.9 -1.76, 404.23 -0.4" stroke="#000000" stroke-width="1" fill="none"></path></g></g><g transform="translate(351.0109766947644 1904.4214157301594) rotate(0 229 68.5)"><text x="0" y="31.666666666666664" font-family="Virgil, Segoe UI Emoji" font-size="36px" fill="#000000" text-anchor="start" style="white-space: pre;" direction="ltr">Request credential</text><text x="0" y="77.33333333333333" font-family="Virgil, Segoe UI Emoji" font-size="36px" fill="#000000" text-anchor="start" style="white-space: pre;" direction="ltr">Using the request params</text><text x="0" y="123" font-family="Virgil, Segoe UI Emoji" font-size="36px" fill="#000000" text-anchor="start" style="white-space: pre;" direction="ltr">from the deeplink </text></g><g stroke-linecap="round"><g transform="translate(795.0717837338179 2103.2573776125464) rotate(0 45.700837899640646 51.62409177642746)"><path d="M-0.05 -1.14 C15.18 7.86, 90.51 35.78, 90.79 53.22 C91.08 70.66, 16.57 95.17, 1.64 103.5 M-1.54 0.88 C14.11 10.16, 92.5 37.6, 92.94 54.85 C93.37 72.1, 16.32 96.23, 1.06 104.38" stroke="#000000" stroke-width="1" fill="none"></path></g><g transform="translate(795.0717837338179 2103.2573776125464) rotate(0 45.700837899640646 51.62409177642746)"><path d="M21.29 82.31 C17.85 89.75, 10.68 94.08, -0.78 103.69 M22.68 84.38 C16.87 90.12, 10.93 94.49, 1.66 104.47" stroke="#000000" stroke-width="1" fill="none"></path></g><g transform="translate(795.0717837338179 2103.2573776125464) rotate(0 45.700837899640646 51.62409177642746)"><path d="M29.14 101.28 C23.86 103.99, 14.74 103.6, -0.78 103.69 M30.53 103.34 C22.56 104.17, 14.58 103.59, 1.66 104.47" stroke="#000000" stroke-width="1" fill="none"></path></g></g><g transform="translate(903.5109766947644 2131.9214157301594) rotate(0 178.5 23)"><text x="0" y="32" font-family="Virgil, Segoe UI Emoji" font-size="36px" fill="#000000" text-anchor="start" style="white-space: pre;" direction="ltr">Check request data</text></g><g stroke-linecap="round"><g transform="translate(771.0109766947644 2785.4214157301594) rotate(0 -209.29305662073148 2.112469352194694)"><path d="M-1 0.76 C-70.78 1.36, -348.43 2.29, -418.03 2.55 M0.67 0.12 C-69.37 1.02, -349.77 3.54, -419.26 4.11" stroke="#000000" stroke-width="1" fill="none"></path></g><g transform="translate(771.0109766947644 2785.4214157301594) rotate(0 -209.29305662073148 2.112469352194694)"><path d="M-389.88 -7.28 C-401.1 -4.71, -411.42 -0.55, -420.15 3.36 M-391.19 -7.05 C-399.49 -3.18, -408.18 -0.01, -419.66 4.48" stroke="#000000" stroke-width="1" fill="none"></path></g><g transform="translate(771.0109766947644 2785.4214157301594) rotate(0 -209.29305662073148 2.112469352194694)"><path d="M-389.7 13.24 C-400.8 8.56, -411.19 5.47, -420.15 3.36 M-391.01 13.47 C-399.17 11.34, -407.91 8.52, -419.66 4.48" stroke="#000000" stroke-width="1" fill="none"></path></g></g><g transform="translate(398.5109766947644 2684.4214157301594) rotate(0 146.5 45.5)"><text x="0" y="32.5" font-family="Virgil, Segoe UI Emoji" font-size="36px" fill="#000000" text-anchor="start" style="white-space: pre;" direction="ltr">Respond with</text><text x="0" y="78" font-family="Virgil, Segoe UI Emoji" font-size="36px" fill="#000000" text-anchor="start" style="white-space: pre;" direction="ltr">signed credential</text></g><g stroke-linecap="round"><g transform="translate(789.6776433614305 944.5164628481975) rotate(0 254.3616931734091 -0.7080637043511189)"><path d="M0.42 0.62 C84.94 0.22, 422.84 -1.63, 507.43 -2.04 M-0.83 -0.09 C84.02 -0.37, 424.93 -0.71, 509.55 -0.82" stroke="#000000" stroke-width="1" fill="none"></path></g><g transform="translate(789.6776433614305 944.5164628481975) rotate(0 254.3616931734091 -0.7080637043511189)"><path d="M482.41 7.57 C489.49 4.99, 498.96 4.16, 510.08 -0.47 M481.01 9.6 C487.76 8.01, 495.44 5.7, 508.95 -1.13" stroke="#000000" stroke-width="1" fill="none"></path></g><g transform="translate(789.6776433614305 944.5164628481975) rotate(0 254.3616931734091 -0.7080637043511189)"><path d="M482.39 -12.95 C489.54 -8.85, 499.01 -3, 510.08 -0.47 M480.99 -10.93 C487.66 -7.76, 495.35 -5.32, 508.95 -1.13" stroke="#000000" stroke-width="1" fill="none"></path></g></g><g transform="translate(832.5347862185745 842.8021772477683) rotate(0 222 45.5)"><text x="0" y="32.5" font-family="Virgil, Segoe UI Emoji" font-size="36px" fill="#000000" text-anchor="start" style="white-space: pre;" direction="ltr">Pass the data required </text><text x="0" y="78" font-family="Virgil, Segoe UI Emoji" font-size="36px" fill="#000000" text-anchor="start" style="white-space: pre;" direction="ltr">for creating deeplink</text></g><g stroke-linecap="round"><g transform="translate(806.5955932576271 670.9238534158699) rotate(0 46.06232993697358 52.38867321307648)"><path d="M0.05 0.1 C15.22 8.95, 91.01 34.58, 91.17 51.95 C91.34 69.32, 16.1 95.8, 1.04 104.34 M-1.39 -0.89 C14.16 8.17, 93.26 35.15, 93.51 52.91 C93.77 70.67, 15.59 97.19, 0.15 105.67" stroke="#000000" stroke-width="1" fill="none"></path></g><g transform="translate(806.5955932576271 670.9238534158699) rotate(0 46.06232993697358 52.38867321307648)"><path d="M22.07 83.82 C13.06 91.07, 8.1 97.22, -1.69 105.64 M22.06 85.22 C16.63 88.63, 13.25 93.82, -0.27 105.97" stroke="#000000" stroke-width="1" fill="none"></path></g><g transform="translate(806.5955932576271 670.9238534158699) rotate(0 46.06232993697358 52.38867321307648)"><path d="M30.27 102.63 C18.87 104, 11.35 104.25, -1.69 105.64 M30.26 104.04 C23.13 103.61, 18.11 105.03, -0.27 105.97" stroke="#000000" stroke-width="1" fill="none"></path></g></g><g transform="translate(917.8572648287845 676.6671881007788) rotate(0 272.5 45.5)"><text x="0" y="32.5" font-family="Virgil, Segoe UI Emoji" font-size="36px" fill="#000000" text-anchor="start" style="white-space: pre;" direction="ltr">Process user request </text><text x="0" y="78" font-family="Virgil, Segoe UI Emoji" font-size="36px" fill="#000000" text-anchor="start" style="white-space: pre;" direction="ltr">for course/program credential </text></g><g transform="translate(780.2530808845086 10) rotate(0 226 23)"><text x="0" y="32" font-family="Virgil, Segoe UI Emoji" font-size="36px" fill="#000000" text-anchor="start" style="white-space: pre;" direction="ltr">ISSUE credential process</text></g><g stroke-linecap="round" transform="translate(10 1333.594762219066) rotate(0 972.0264042702734 266.5952505026659)"><path d="M0.6 -0.4 C516.53 3.2, 1032.5 2.19, 1944.77 0.45 M1944.22 -0.49 C1943.91 127.4, 1944.12 254.88, 1943.49 533.18 M1944.14 532.62 C1206.96 535.4, 468.91 535.36, 0.74 533.69 M-0.74 532.75 C1.02 344.94, 0.29 156.63, -0.76 0.71" stroke="#000000" stroke-width="1.5" fill="none" stroke-dasharray="8 9"></path></g><g stroke-linecap="round"><g transform="translate(22.714999183323926 1603.3022973559669) rotate(0 968.155986107171 -0.6418754249036169)"><path d="M-0.91 -0.99 C322.08 -0.96, 1614.15 -0.47, 1937.22 -0.29" stroke="#000000" stroke-width="1.5" fill="none" stroke-dasharray="8 9"></path></g></g><g transform="translate(18.774309974735843 1350.7686651541546) rotate(0 37.5 23)"><text x="0" y="32" font-family="Virgil, Segoe UI Emoji" font-size="36px" fill="#000000" text-anchor="start" style="white-space: pre;" direction="ltr">ALT</text></g><g transform="translate(22.405030551118216 1410.0002154322324) rotate(0 98.12591289358352 31.113094332111814)"><text x="0" y="22.113094332111793" font-family="Virgil, Segoe UI Emoji" font-size="24.61695375727527px" fill="#000000" text-anchor="start" style="white-space: pre;" direction="ltr">auth_type=code</text><text x="0" y="53.226188664223585" font-family="Virgil, Segoe UI Emoji" font-size="24.61695375727527px" fill="#000000" text-anchor="start" style="white-space: pre;" direction="ltr">(OIDC)</text></g><g transform="translate(30.723259678120485 1634.5924018612932) rotate(0 123.2984100408612 17.135126470935404)"><text x="0" y="23.2702529418708" font-family="Virgil, Segoe UI Emoji" font-size="26.820197954507563px" fill="#000000" text-anchor="start" style="white-space: pre;" direction="ltr">auth_type=Bearer</text></g><g stroke-linecap="round"><g transform="translate(358.9728769672838 1427.7992678789608) rotate(0 205.93541949834935 1.2730856581387116)"><path d="M-0.11 -0.04 C68.56 0.27, 342.44 1.63, 411.35 2.05 M-1.63 -1.11 C67.46 -0.59, 344.38 3.4, 413.5 3.66" stroke="#000000" stroke-width="1" fill="none"></path></g><g transform="translate(358.9728769672838 1427.7992678789608) rotate(0 205.93541949834935 1.2730856581387116)"><path d="M385.14 11.85 C392.31 12.77, 399.93 7.37, 412.39 2.48 M385.16 14.33 C393.76 10.95, 403.85 6.53, 413.63 3.23" stroke="#000000" stroke-width="1" fill="none"></path></g><g transform="translate(358.9728769672838 1427.7992678789608) rotate(0 205.93541949834935 1.2730856581387116)"><path d="M385.34 -8.67 C392.49 -2.75, 400.06 -3.15, 412.39 2.48 M385.36 -6.19 C393.9 -3.04, 403.93 -0.93, 413.63 3.23" stroke="#000000" stroke-width="1" fill="none"></path></g></g><g transform="translate(370.4824015015929 1371.5159320088737) rotate(0 195.22618866422363 20.04554615748725)"><text x="0" y="28.09109231497449" font-family="Virgil, Segoe UI Emoji" font-size="31.375637463893085px" fill="#000000" text-anchor="start" style="white-space: pre;" direction="ltr">Send OIDC auth request</text></g><g stroke-linecap="round"><g transform="translate(356.0954958337052 1541.3032427768076) rotate(0 206.230967015425 0.7194914670041612)"><path d="M0.44 -1.19 C69.38 -1.1, 344.4 1.01, 413.26 1.38 M-0.79 0.8 C68.11 0.98, 343.7 2.46, 412.74 2.63" stroke="#000000" stroke-width="1" fill="none"></path></g><g transform="translate(356.0954958337052 1541.3032427768076) rotate(0 206.230967015425 0.7194914670041612)"><path d="M26.7 -9.9 C20.39 -6.56, 12.29 -5.75, -0.78 -2.22 M29.68 -10.89 C21.87 -7.99, 15.17 -5.25, 1.32 -1.67" stroke="#000000" stroke-width="1" fill="none"></path></g><g transform="translate(356.0954958337052 1541.3032427768076) rotate(0 206.230967015425 0.7194914670041612)"><path d="M26.58 10.63 C20.16 8.53, 12.1 3.92, -0.78 -2.22 M29.55 9.63 C21.8 7.46, 15.14 5.13, 1.32 -1.67" stroke="#000000" stroke-width="1" fill="none"></path></g></g><g transform="translate(398.29708579284215 1483.1016528176688) rotate(0 160 20)"><text x="0" y="28" font-family="Virgil, Segoe UI Emoji" font-size="31.375637463893085px" fill="#000000" text-anchor="start" style="white-space: pre;" direction="ltr">Return access token</text></g><g transform="translate(357.0546228782323 1649.662774921379) rotate(0 190.8992050204306 61.68205445235611)"><text x="0" y="28.121369634904084" font-family="Virgil, Segoe UI Emoji" font-size="32.41684613554482px" fill="#000000" text-anchor="start" style="white-space: pre;" direction="ltr">Do Nothing</text><text x="0" y="69.24273926980817" font-family="Virgil, Segoe UI Emoji" font-size="32.41684613554482px" fill="#000000" text-anchor="start" style="white-space: pre;" direction="ltr">The 'challenge' param</text><text x="0" y="110.36410890471225" font-family="Virgil, Segoe UI Emoji" font-size="32.41684613554482px" fill="#000000" text-anchor="start" style="white-space: pre;" direction="ltr">will be passed in the VP</text></g></svg>