<svg version="1.1" xmlns="http://www.w3.org/2000/svg" viewBox="0 0 2488.993016347418 1138.7387254833138" width="4977.986032694836" height="2277.4774509666277">
  <!-- svg-source:excalidraw -->
  
  <defs>
    <style>
      @font-face {
        font-family: "Virgil";
        src: url("https://excalidraw.com/Virgil.woff2");
      }
      @font-face {
        font-family: "Cascadia";
        src: url("https://excalidraw.com/Cascadia.woff2");
      }
    </style>
  </defs>
  <rect x="0" y="0" width="2488.993016347418" height="1138.7387254833138" fill="#ffffff"></rect><g stroke-linecap="round" transform="translate(990.8543491355838 408.67637345140884) rotate(0 205.75550704215073 150.72787143785445)"><path d="M1.66 -1.3 L410.76 0.02 L411.34 300.04 L0.84 303.23" stroke="none" stroke-width="0" fill="#fff"></path><path d="M0 0.82 C132.27 0.05, 264.29 0.02, 411.47 0.72 M0.29 0.5 C120.49 -0.93, 239.89 -0.46, 411.51 0.25 M410.37 0.09 C410.84 81.84, 412.81 164.76, 410.51 301.02 M411.34 -0.18 C413.42 63.8, 412.96 126.18, 412.08 302.12 M412.11 300.5 C260.25 302.32, 109.82 303.67, 0.49 300.78 M411.45 301.21 C286.38 302.08, 160.28 302.5, 0.24 301.2 M-1.11 300.77 C-0.14 194.09, 0.51 85.35, -1.17 0.48 M-0.56 301.45 C1.7 185.07, 2.09 69.77, -0.48 0.09" stroke="#000000" stroke-width="1" fill="none"></path></g><g stroke-linecap="round"><g transform="translate(1995.7068251350847 290.1329138930091) rotate(0 -277.47257229269127 102.9345807979596)"><path d="M0.34 0.63 C-92.27 35.11, -462.04 171.57, -554.59 205.96 M-0.94 -0.09 C-93.75 34.09, -462.84 169.72, -555.29 203.94" stroke="#000000" stroke-width="1" fill="none"></path></g><g transform="translate(1995.7068251350847 290.1329138930091) rotate(0 -277.47257229269127 102.9345807979596)"><path d="M-531.34 185.35 C-541.1 192.37, -548.33 199.9, -557.04 203.02 M-531.99 185.45 C-538.51 189.79, -544.38 194.31, -555.42 203.78" stroke="#000000" stroke-width="1" fill="none"></path></g><g transform="translate(1995.7068251350847 290.1329138930091) rotate(0 -277.47257229269127 102.9345807979596)"><path d="M-524.24 204.61 C-536.6 204.17, -546.59 204.22, -557.04 203.02 M-524.89 204.7 C-533.29 203.75, -541.12 202.99, -555.42 203.78" stroke="#000000" stroke-width="1" fill="none"></path></g></g><g stroke-linecap="round"><g transform="translate(2014.8468725546593 846.5049523899384) rotate(0 -287.5997600697732 -136.01956426339427)"><path d="M-0.79 -0.57 C-96.89 -46.1, -479.58 -228.55, -575.71 -273.78 M1 1.75 C-95.26 -43.62, -480.17 -226.85, -576.2 -272.79" stroke="#000000" stroke-width="1" fill="none"></path></g><g transform="translate(2014.8468725546593 846.5049523899384) rotate(0 -287.5997600697732 -136.01956426339427)"><path d="M-547.29 -268.45 C-559.27 -272.8, -567.49 -270.45, -574.95 -271.16 M-545.56 -269.09 C-557.23 -269.99, -567.53 -271.28, -577.08 -273.53" stroke="#000000" stroke-width="1" fill="none"></path></g><g transform="translate(2014.8468725546593 846.5049523899384) rotate(0 -287.5997600697732 -136.01956426339427)"><path d="M-556.12 -249.93 C-564.69 -261.18, -569.59 -265.78, -574.95 -271.16 M-554.39 -250.57 C-562.9 -258.35, -569.96 -266.43, -577.08 -273.53" stroke="#000000" stroke-width="1" fill="none"></path></g></g><g stroke-linecap="round" transform="translate(2024.4168961380153 133.538195429928) rotate(0 212.93302472966752 147.1391125940961)"><path d="M1.08 0.67 L427.07 0.74 L426.94 295.44 L0.75 295.55" stroke="none" stroke-width="0" fill="#fff"></path><path d="M-0.5 -0.04 C101.06 0.24, 203.64 0.52, 425.5 0.55 M-0.39 -0.28 C126.23 -1.73, 252.53 -1.49, 425.53 0.01 M424.53 0.64 C427.76 113.21, 427.58 228.97, 425.51 293.3 M426.57 0.19 C426.39 92.9, 426.46 187.32, 426.17 293.93 M426.03 295.3 C283.16 293.94, 137.64 294.91, -0.91 294.82 M425.37 294.77 C318.99 292.42, 212.43 292.85, -0.09 294.25 M-0.3 293.53 C1.14 182.55, 0.66 70.44, -1.48 1.28 M0.73 293.68 C1.49 205.6, 1.45 116.39, 0.01 0.47" stroke="#000000" stroke-width="1" fill="none"></path></g><g transform="translate(2081.83703763815 212.1684076801307) rotate(0 163 10.5)"><text x="0" y="15" font-family="Virgil, Segoe UI Emoji" font-size="16px" fill="#000000" text-anchor="start" style="white-space: pre;" direction="ltr">Class for different types of achivements</text></g><g transform="translate(2153.612214513319 286.3360904511385) rotate(0 73 31.5)"><text x="0" y="15" font-family="Virgil, Segoe UI Emoji" font-size="16px" fill="#000000" text-anchor="start" style="white-space: pre;" direction="ltr">- programs + skills</text><text x="0" y="36" font-family="Virgil, Segoe UI Emoji" font-size="16px" fill="#000000" text-anchor="start" style="white-space: pre;" direction="ltr">- courses + skills</text><text x="0" y="57" font-family="Virgil, Segoe UI Emoji" font-size="16px" fill="#000000" text-anchor="start" style="white-space: pre;" direction="ltr"></text></g><g stroke-linecap="round" transform="translate(2022.0243902421762 734.0571752855076) rotate(0 228.4843130526208 133.98033016698173)"><path d="M-1.87 -0.54 L455.07 0.67 L456.4 269.44 L0.57 269.41" stroke="none" stroke-width="0" fill="#fff"></path><path d="M-0.39 -0.91 C97.36 -1.54, 193.31 -1, 456.5 0.68 M-0.11 0.33 C166.58 -0.79, 332.54 -0.64, 457.31 0.19 M456.91 0.68 C458.91 61.14, 458.61 119.03, 457.49 269.27 M457.45 -0.2 C456.67 75.05, 457.81 151.82, 457.55 268.14 M457.5 268.52 C305.02 266.28, 153.41 265.55, 0.38 268.62 M456.89 267.95 C282.95 268.51, 108.31 269.09, -0.07 268.02 M0.66 267.01 C2.74 177.01, 1.82 82.98, 0.78 0.14 M0.23 267.34 C-1.28 206.9, -0.56 146.95, 0.23 -0.71" stroke="#000000" stroke-width="1" fill="none"></path></g><g transform="translate(2074.6595199506337 817.4723993273878) rotate(0 151.5 10.5)"><text x="0" y="15" font-family="Virgil, Segoe UI Emoji" font-size="16px" fill="#000000" text-anchor="start" style="white-space: pre;" direction="ltr">Class for different types of backends</text></g><g transform="translate(1024.7289082634074 519.8413600207803) rotate(0 160 13)"><text x="0" y="18" font-family="Virgil, Segoe UI Emoji" font-size="20px" fill="#000000" text-anchor="start" style="white-space: pre;" direction="ltr">Extension for issuing credentials</text></g><g transform="translate(2177.7814930533873 864.513473193748) rotate(0 88.5 39)"><text x="0" y="18" font-family="Virgil, Segoe UI Emoji" font-size="20px" fill="#000000" text-anchor="start" style="white-space: pre;" direction="ltr">- DCC</text><text x="0" y="44" font-family="Virgil, Segoe UI Emoji" font-size="20px" fill="#000000" text-anchor="start" style="white-space: pre;" direction="ltr">- Open Badges3.0</text><text x="0" y="70" font-family="Virgil, Segoe UI Emoji" font-size="20px" fill="#000000" text-anchor="start" style="white-space: pre;" direction="ltr">- EBSI</text></g><g stroke-linecap="round"><g transform="translate(977.6148126931894 543.9520436150783) rotate(0 -207.00398101703664 -0.43568757157527216)"><path d="M-0.77 0.02 C-69.67 -0.05, -344.75 -0.71, -413.24 -0.89" stroke="#000000" stroke-width="1.5" fill="none" stroke-dasharray="8 9"></path></g><g transform="translate(977.6148126931894 543.9520436150783) rotate(0 -207.00398101703664 -0.43568757157527216)"><path d="M-384.99 -12.14 C-395.34 -6.62, -404.45 -6.64, -413.98 -2.75" stroke="#000000" stroke-width="1.5" fill="none"></path></g><g transform="translate(977.6148126931894 543.9520436150783) rotate(0 -207.00398101703664 -0.43568757157527216)"><path d="M-385.04 8.39 C-395.3 7.5, -404.39 1.09, -413.98 -2.75" stroke="#000000" stroke-width="1.5" fill="none"></path></g></g><g stroke-linecap="round" transform="translate(10 10) rotate(0 271.81837722697287 451.6366883155856)"><path d="M-0.24 -0.32 C211.03 -1.59, 422.71 -2.59, 543.66 -0.66 M543.58 0.71 C540.82 315.23, 540.2 631.57, 543.49 903.69 M542.97 902.9 C420.91 905.63, 297.87 904.19, -0.45 902.5 M-0.6 903.54 C2.87 610.68, 3.49 318.29, 0.6 -0.19" stroke="#000000" stroke-width="1.5" fill="none" stroke-dasharray="8 9"></path></g><g transform="translate(85.08651684376377 238.88937262387776) rotate(0 197 13)"><text x="0" y="18" font-family="Virgil, Segoe UI Emoji" font-size="20px" fill="#000000" text-anchor="start" style="white-space: pre;" direction="ltr">Transform data from db into json claim</text></g><g transform="translate(1211.2157464046295 138.2018210395213) rotate(0 69 13)"><text x="0" y="18" font-family="Virgil, Segoe UI Emoji" font-size="20px" fill="#000000" text-anchor="start" style="white-space: pre;" direction="ltr">implementation</text></g><g transform="translate(1622.3131351531197 362.1417143840936) rotate(0 37.5 13)"><text x="0" y="18" font-family="Virgil, Segoe UI Emoji" font-size="20px" fill="#000000" text-anchor="start" style="white-space: pre;" direction="ltr">part of</text></g><g transform="translate(1660.5416015015262 644.8280512744882) rotate(0 37.5 13)"><text x="0" y="18" font-family="Virgil, Segoe UI Emoji" font-size="20px" fill="#000000" text-anchor="start" style="white-space: pre;" direction="ltr">part of</text></g><g transform="translate(126.11272693706132 386.45753877786046) rotate(0 154 13)"><text x="0" y="18" font-family="Virgil, Segoe UI Emoji" font-size="20px" fill="#000000" text-anchor="start" style="white-space: pre;" direction="ltr">Get learners and issuers data</text></g><g transform="translate(130.38597978772214 531.4234600733807) rotate(0 127 13)"><text x="0" y="18" font-family="Virgil, Segoe UI Emoji" font-size="20px" fill="#000000" text-anchor="start" style="white-space: pre;" direction="ltr">Send data to sign module</text></g><g transform="translate(95.05283101268924 695.7406686661166) rotate(0 201 13)"><text x="0" y="18" font-family="Virgil, Segoe UI Emoji" font-size="20px" fill="#000000" text-anchor="start" style="white-space: pre;" direction="ltr">Create QR code / deeplink to mobile app</text></g><g stroke-linecap="round" transform="translate(922.2126934847663 918.8777279516542) rotate(0 130.4049551136037 104.93049876582984)"><path d="M0.81 1.3 C53.98 0.16, 105.27 -1.45, 262.35 0.69 M-0.46 -0.39 C69.62 0.43, 139.41 -0.54, 260.39 -0.53 M260.14 -0.4 C262.34 58, 261.71 116.54, 261.33 209.95 M260.14 -0.03 C261.86 79.72, 262.41 158.18, 260.5 209.43 M262.38 210.7 C201.76 211.35, 141.22 210.9, 0.77 208.68 M260.93 210.53 C158.41 210.36, 56 209.42, -0.21 209.17 M0.98 209.96 C0.4 161.72, 1.29 111.66, 0.01 -1.54 M0.24 210.2 C0.61 142.89, 0.67 76.92, 0.87 0.48" stroke="#000000" stroke-width="1" fill="none"></path></g><g transform="translate(985.2922996792538 1008.136345293067) rotate(0 61.5 13)"><text x="0" y="18" font-family="Virgil, Segoe UI Emoji" font-size="20px" fill="#000000" text-anchor="start" style="white-space: pre;" direction="ltr"> Sign service</text></g><g stroke-linecap="round"><g transform="translate(1074.4762138638046 735.704256117662) rotate(0 -0.735276054483446 84.96936345817528)"><path d="M0.28 0.17 C-0.02 28.5, -1.55 141.27, -1.8 169.41 M-1.04 -0.79 C-0.98 27.76, 0.52 142.28, 0.31 170.73" stroke="#000000" stroke-width="1" fill="none"></path></g><g transform="translate(1074.4762138638046 735.704256117662) rotate(0 -0.735276054483446 84.96936345817528)"><path d="M10.46 26.56 C6.69 19.12, 3.07 10.91, 1.74 2.13 M10.92 28.18 C6.94 17.76, 3.9 8.42, 0.16 0.32" stroke="#000000" stroke-width="1" fill="none"></path></g><g transform="translate(1074.4762138638046 735.704256117662) rotate(0 -0.735276054483446 84.96936345817528)"><path d="M-10.06 26.3 C-7.75 18.9, -5.27 10.76, 1.74 2.13 M-9.6 27.92 C-6.35 17.6, -2.15 8.35, 0.16 0.32" stroke="#000000" stroke-width="1" fill="none"></path></g><g transform="translate(1074.4762138638046 735.704256117662) rotate(0 -0.735276054483446 84.96936345817528)"><path d="M-9.79 140.66 C-7.82 149.93, -5.42 158.47, 1.78 172.69 M-9.34 142.28 C-5.69 151.77, -1.58 162.34, 0.19 170.88" stroke="#000000" stroke-width="1" fill="none"></path></g><g transform="translate(1074.4762138638046 735.704256117662) rotate(0 -0.735276054483446 84.96936345817528)"><path d="M10.73 140.58 C6.61 149.91, 2.93 158.48, 1.78 172.69 M11.19 142.19 C7.59 151.71, 4.47 162.31, 0.19 170.88" stroke="#000000" stroke-width="1" fill="none"></path></g></g><g transform="translate(1119.9429975174862 804.3406945108773) rotate(0 52 13)"><text x="0" y="18" font-family="Virgil, Segoe UI Emoji" font-size="20px" fill="#000000" text-anchor="start" style="white-space: pre;" direction="ltr">Send data</text></g><g transform="translate(1118.7299281675923 851.6503991567429) rotate(0 83.5 13)"><text x="0" y="18" font-family="Virgil, Segoe UI Emoji" font-size="20px" fill="#000000" text-anchor="start" style="white-space: pre;" direction="ltr">Get Signed data</text></g><g transform="translate(995.8493374593231 1051.8381304357522) rotate(0 33.5 13)"><text x="0" y="18" font-family="Virgil, Segoe UI Emoji" font-size="20px" fill="#000000" text-anchor="start" style="white-space: pre;" direction="ltr">MS AD</text></g><g transform="translate(998.8159160936517 1094.9679854333276) rotate(0 37.5 13)"><text x="0" y="18" font-family="Virgil, Segoe UI Emoji" font-size="20px" fill="#000000" text-anchor="start" style="white-space: pre;" direction="ltr">MATTR</text></g></svg>